<?xml version="1.0" encoding="UTF-8" standalone="no"?><svg xmlns="http://www.w3.org/2000/svg" id="hammer_and_wrench" width="32" height="32" viewBox="0 0 32 32" preserveAspectRatio="xMidYMid meet" rendering="crispEdges"><rect id="11-2" x="10" y="1" width="1" height="1" shape-rendering="crispEdges" style="fill:#aeaeae;opacity:255;"></rect><rect id="12-2" x="11" y="1" width="1" height="1" shape-rendering="crispEdges" style="fill:#aeaeae;opacity:255;"></rect><rect id="13-2" x="12" y="1" width="1" height="1" shape-rendering="crispEdges" style="fill:#aeaeae;opacity:255;"></rect><rect id="14-2" x="13" y="1" width="1" height="1" shape-rendering="crispEdges" style="fill:#aeaeae;opacity:255;"></rect><rect id="24-2" x="23" y="1" width="1" height="1" shape-rendering="crispEdges" style="fill:#aeaeae;opacity:255;"></rect><rect id="25-2" x="24" y="1" width="1" height="1" shape-rendering="crispEdges" style="fill:#aeaeae;opacity:255;"></rect><rect id="26-2" x="25" y="1" width="1" height="1" shape-rendering="crispEdges" style="fill:#aeaeae;opacity:255;"></rect><rect id="27-2" x="26" y="1" width="1" height="1" shape-rendering="crispEdges" style="fill:#8a8a8a;opacity:255;"></rect><rect id="9-3" x="8" y="2" width="1" height="1" shape-rendering="crispEdges" style="fill:#aeaeae;opacity:255;"></rect><rect id="10-3" x="9" y="2" width="1" height="1" shape-rendering="crispEdges" style="fill:#aeaeae;opacity:255;"></rect><rect id="11-3" x="10" y="2" width="1" height="1" shape-rendering="crispEdges" style="fill:#a0a0a1;opacity:255;"></rect><rect id="12-3" x="11" y="2" width="1" height="1" shape-rendering="crispEdges" style="fill:#a0a0a1;opacity:255;"></rect><rect id="13-3" x="12" y="2" width="1" height="1" shape-rendering="crispEdges" style="fill:#a0a0a1;opacity:255;"></rect><rect id="14-3" x="13" y="2" width="1" height="1" shape-rendering="crispEdges" style="fill:#a0a0a1;opacity:255;"></rect><rect id="15-3" x="14" y="2" width="1" height="1" shape-rendering="crispEdges" style="fill:#aeaeae;opacity:255;"></rect><rect id="23-3" x="22" y="2" width="1" height="1" shape-rendering="crispEdges" style="fill:#aeaeae;opacity:255;"></rect><rect id="24-3" x="23" y="2" width="1" height="1" shape-rendering="crispEdges" style="fill:#a0a0a1;opacity:255;"></rect><rect id="25-3" x="24" y="2" width="1" height="1" shape-rendering="crispEdges" style="fill:#a0a0a1;opacity:255;"></rect><rect id="26-3" x="25" y="2" width="1" height="1" shape-rendering="crispEdges" style="fill:#8a8a8a;opacity:255;"></rect><rect id="8-4" x="7" y="3" width="1" height="1" shape-rendering="crispEdges" style="fill:#aeaeae;opacity:255;"></rect><rect id="9-4" x="8" y="3" width="1" height="1" shape-rendering="crispEdges" style="fill:#a0a0a1;opacity:255;"></rect><rect id="10-4" x="9" y="3" width="1" height="1" shape-rendering="crispEdges" style="fill:#a0a0a1;opacity:255;"></rect><rect id="11-4" x="10" y="3" width="1" height="1" shape-rendering="crispEdges" style="fill:#a0a0a1;opacity:255;"></rect><rect id="12-4" x="11" y="3" width="1" height="1" shape-rendering="crispEdges" style="fill:#a0a0a1;opacity:255;"></rect><rect id="13-4" x="12" y="3" width="1" height="1" shape-rendering="crispEdges" style="fill:#a0a0a1;opacity:255;"></rect><rect id="14-4" x="13" y="3" width="1" height="1" shape-rendering="crispEdges" style="fill:#aeaeae;opacity:255;"></rect><rect id="22-4" x="21" y="3" width="1" height="1" shape-rendering="crispEdges" style="fill:#aeaeae;opacity:255;"></rect><rect id="23-4" x="22" y="3" width="1" height="1" shape-rendering="crispEdges" style="fill:#a0a0a1;opacity:255;"></rect><rect id="24-4" x="23" y="3" width="1" height="1" shape-rendering="crispEdges" style="fill:#a0a0a1;opacity:255;"></rect><rect id="25-4" x="24" y="3" width="1" height="1" shape-rendering="crispEdges" style="fill:#8a8a8a;opacity:255;"></rect><rect id="7-5" x="6" y="4" width="1" height="1" shape-rendering="crispEdges" style="fill:#aeaeae;opacity:255;"></rect><rect id="8-5" x="7" y="4" width="1" height="1" shape-rendering="crispEdges" style="fill:#a0a0a1;opacity:255;"></rect><rect id="9-5" x="8" y="4" width="1" height="1" shape-rendering="crispEdges" style="fill:#a0a0a1;opacity:255;"></rect><rect id="10-5" x="9" y="4" width="1" height="1" shape-rendering="crispEdges" style="fill:#a0a0a1;opacity:255;"></rect><rect id="11-5" x="10" y="4" width="1" height="1" shape-rendering="crispEdges" style="fill:#a0a0a1;opacity:255;"></rect><rect id="12-5" x="11" y="4" width="1" height="1" shape-rendering="crispEdges" style="fill:#a0a0a1;opacity:255;"></rect><rect id="13-5" x="12" y="4" width="1" height="1" shape-rendering="crispEdges" style="fill:#aeaeae;opacity:255;"></rect><rect id="21-5" x="20" y="4" width="1" height="1" shape-rendering="crispEdges" style="fill:#aeaeae;opacity:255;"></rect><rect id="22-5" x="21" y="4" width="1" height="1" shape-rendering="crispEdges" style="fill:#a0a0a1;opacity:255;"></rect><rect id="23-5" x="22" y="4" width="1" height="1" shape-rendering="crispEdges" style="fill:#a0a0a1;opacity:255;"></rect><rect id="24-5" x="23" y="4" width="1" height="1" shape-rendering="crispEdges" style="fill:#8a8a8a;opacity:255;"></rect><rect id="6-6" x="5" y="5" width="1" height="1" shape-rendering="crispEdges" style="fill:#aeaeae;opacity:255;"></rect><rect id="7-6" x="6" y="5" width="1" height="1" shape-rendering="crispEdges" style="fill:#a0a0a1;opacity:255;"></rect><rect id="8-6" x="7" y="5" width="1" height="1" shape-rendering="crispEdges" style="fill:#a0a0a1;opacity:255;"></rect><rect id="9-6" x="8" y="5" width="1" height="1" shape-rendering="crispEdges" style="fill:#a0a0a1;opacity:255;"></rect><rect id="10-6" x="9" y="5" width="1" height="1" shape-rendering="crispEdges" style="fill:#a0a0a1;opacity:255;"></rect><rect id="11-6" x="10" y="5" width="1" height="1" shape-rendering="crispEdges" style="fill:#a0a0a1;opacity:255;"></rect><rect id="12-6" x="11" y="5" width="1" height="1" shape-rendering="crispEdges" style="fill:#aeaeae;opacity:255;"></rect><rect id="21-6" x="20" y="5" width="1" height="1" shape-rendering="crispEdges" style="fill:#aeaeae;opacity:255;"></rect><rect id="22-6" x="21" y="5" width="1" height="1" shape-rendering="crispEdges" style="fill:#a0a0a1;opacity:255;"></rect><rect id="23-6" x="22" y="5" width="1" height="1" shape-rendering="crispEdges" style="fill:#a0a0a1;opacity:255;"></rect><rect id="24-6" x="23" y="5" width="1" height="1" shape-rendering="crispEdges" style="fill:#8a8a8a;opacity:255;"></rect><rect id="31-6" x="30" y="5" width="1" height="1" shape-rendering="crispEdges" style="fill:#8a8a8a;opacity:255;"></rect><rect id="5-7" x="4" y="6" width="1" height="1" shape-rendering="crispEdges" style="fill:#aeaeae;opacity:255;"></rect><rect id="6-7" x="5" y="6" width="1" height="1" shape-rendering="crispEdges" style="fill:#a0a0a1;opacity:255;"></rect><rect id="7-7" x="6" y="6" width="1" height="1" shape-rendering="crispEdges" style="fill:#a0a0a1;opacity:255;"></rect><rect id="8-7" x="7" y="6" width="1" height="1" shape-rendering="crispEdges" style="fill:#a0a0a1;opacity:255;"></rect><rect id="9-7" x="8" y="6" width="1" height="1" shape-rendering="crispEdges" style="fill:#a0a0a1;opacity:255;"></rect><rect id="10-7" x="9" y="6" width="1" height="1" shape-rendering="crispEdges" style="fill:#a0a0a1;opacity:255;"></rect><rect id="11-7" x="10" y="6" width="1" height="1" shape-rendering="crispEdges" style="fill:#aeaeae;opacity:255;"></rect><rect id="21-7" x="20" y="6" width="1" height="1" shape-rendering="crispEdges" style="fill:#aeaeae;opacity:255;"></rect><rect id="22-7" x="21" y="6" width="1" height="1" shape-rendering="crispEdges" style="fill:#a0a0a1;opacity:255;"></rect><rect id="23-7" x="22" y="6" width="1" height="1" shape-rendering="crispEdges" style="fill:#a0a0a1;opacity:255;"></rect><rect id="24-7" x="23" y="6" width="1" height="1" shape-rendering="crispEdges" style="fill:#a0a0a1;opacity:255;"></rect><rect id="25-7" x="24" y="6" width="1" height="1" shape-rendering="crispEdges" style="fill:#8a8a8a;opacity:255;"></rect><rect id="30-7" x="29" y="6" width="1" height="1" shape-rendering="crispEdges" style="fill:#8a8a8a;opacity:255;"></rect><rect id="31-7" x="30" y="6" width="1" height="1" shape-rendering="crispEdges" style="fill:#aeaeae;opacity:255;"></rect><rect id="4-8" x="3" y="7" width="1" height="1" shape-rendering="crispEdges" style="fill:#aeaeae;opacity:255;"></rect><rect id="5-8" x="4" y="7" width="1" height="1" shape-rendering="crispEdges" style="fill:#a0a0a1;opacity:255;"></rect><rect id="6-8" x="5" y="7" width="1" height="1" shape-rendering="crispEdges" style="fill:#a0a0a1;opacity:255;"></rect><rect id="7-8" x="6" y="7" width="1" height="1" shape-rendering="crispEdges" style="fill:#a0a0a1;opacity:255;"></rect><rect id="8-8" x="7" y="7" width="1" height="1" shape-rendering="crispEdges" style="fill:#a0a0a1;opacity:255;"></rect><rect id="9-8" x="8" y="7" width="1" height="1" shape-rendering="crispEdges" style="fill:#a0a0a1;opacity:255;"></rect><rect id="10-8" x="9" y="7" width="1" height="1" shape-rendering="crispEdges" style="fill:#a0a0a1;opacity:255;"></rect><rect id="11-8" x="10" y="7" width="1" height="1" shape-rendering="crispEdges" style="fill:#a0a0a1;opacity:255;"></rect><rect id="12-8" x="11" y="7" width="1" height="1" shape-rendering="crispEdges" style="fill:#aeaeae;opacity:255;"></rect><rect id="21-8" x="20" y="7" width="1" height="1" shape-rendering="crispEdges" style="fill:#aeaeae;opacity:255;"></rect><rect id="22-8" x="21" y="7" width="1" height="1" shape-rendering="crispEdges" style="fill:#a0a0a1;opacity:255;"></rect><rect id="23-8" x="22" y="7" width="1" height="1" shape-rendering="crispEdges" style="fill:#a0a0a1;opacity:255;"></rect><rect id="24-8" x="23" y="7" width="1" height="1" shape-rendering="crispEdges" style="fill:#a0a0a1;opacity:255;"></rect><rect id="25-8" x="24" y="7" width="1" height="1" shape-rendering="crispEdges" style="fill:#a0a0a1;opacity:255;"></rect><rect id="26-8" x="25" y="7" width="1" height="1" shape-rendering="crispEdges" style="fill:#8a8a8a;opacity:255;"></rect><rect id="29-8" x="28" y="7" width="1" height="1" shape-rendering="crispEdges" style="fill:#8a8a8a;opacity:255;"></rect><rect id="30-8" x="29" y="7" width="1" height="1" shape-rendering="crispEdges" style="fill:#a0a0a1;opacity:255;"></rect><rect id="31-8" x="30" y="7" width="1" height="1" shape-rendering="crispEdges" style="fill:#aeaeae;opacity:255;"></rect><rect id="4-9" x="3" y="8" width="1" height="1" shape-rendering="crispEdges" style="fill:#aeaeae;opacity:255;"></rect><rect id="5-9" x="4" y="8" width="1" height="1" shape-rendering="crispEdges" style="fill:#a0a0a1;opacity:255;"></rect><rect id="6-9" x="5" y="8" width="1" height="1" shape-rendering="crispEdges" style="fill:#a0a0a1;opacity:255;"></rect><rect id="7-9" x="6" y="8" width="1" height="1" shape-rendering="crispEdges" style="fill:#a0a0a1;opacity:255;"></rect><rect id="8-9" x="7" y="8" width="1" height="1" shape-rendering="crispEdges" style="fill:#a0a0a1;opacity:255;"></rect><rect id="9-9" x="8" y="8" width="1" height="1" shape-rendering="crispEdges" style="fill:#a0a0a1;opacity:255;"></rect><rect id="10-9" x="9" y="8" width="1" height="1" shape-rendering="crispEdges" style="fill:#a0a0a1;opacity:255;"></rect><rect id="11-9" x="10" y="8" width="1" height="1" shape-rendering="crispEdges" style="fill:#a0a0a1;opacity:255;"></rect><rect id="12-9" x="11" y="8" width="1" height="1" shape-rendering="crispEdges" style="fill:#a0a0a1;opacity:255;"></rect><rect id="13-9" x="12" y="8" width="1" height="1" shape-rendering="crispEdges" style="fill:#aeaeae;opacity:255;"></rect><rect id="21-9" x="20" y="8" width="1" height="1" shape-rendering="crispEdges" style="fill:#aeaeae;opacity:255;"></rect><rect id="22-9" x="21" y="8" width="1" height="1" shape-rendering="crispEdges" style="fill:#a0a0a1;opacity:255;"></rect><rect id="23-9" x="22" y="8" width="1" height="1" shape-rendering="crispEdges" style="fill:#a0a0a1;opacity:255;"></rect><rect id="24-9" x="23" y="8" width="1" height="1" shape-rendering="crispEdges" style="fill:#a0a0a1;opacity:255;"></rect><rect id="25-9" x="24" y="8" width="1" height="1" shape-rendering="crispEdges" style="fill:#a0a0a1;opacity:255;"></rect><rect id="26-9" x="25" y="8" width="1" height="1" shape-rendering="crispEdges" style="fill:#a0a0a1;opacity:255;"></rect><rect id="27-9" x="26" y="8" width="1" height="1" shape-rendering="crispEdges" style="fill:#8a8a8a;opacity:255;"></rect><rect id="28-9" x="27" y="8" width="1" height="1" shape-rendering="crispEdges" style="fill:#8a8a8a;opacity:255;"></rect><rect id="29-9" x="28" y="8" width="1" height="1" shape-rendering="crispEdges" style="fill:#a0a0a1;opacity:255;"></rect><rect id="30-9" x="29" y="8" width="1" height="1" shape-rendering="crispEdges" style="fill:#a0a0a1;opacity:255;"></rect><rect id="31-9" x="30" y="8" width="1" height="1" shape-rendering="crispEdges" style="fill:#aeaeae;opacity:255;"></rect><rect id="5-10" x="4" y="9" width="1" height="1" shape-rendering="crispEdges" style="fill:#aeaeae;opacity:255;"></rect><rect id="6-10" x="5" y="9" width="1" height="1" shape-rendering="crispEdges" style="fill:#a0a0a1;opacity:255;"></rect><rect id="7-10" x="6" y="9" width="1" height="1" shape-rendering="crispEdges" style="fill:#a0a0a1;opacity:255;"></rect><rect id="8-10" x="7" y="9" width="1" height="1" shape-rendering="crispEdges" style="fill:#a0a0a1;opacity:255;"></rect><rect id="9-10" x="8" y="9" width="1" height="1" shape-rendering="crispEdges" style="fill:#a0a0a1;opacity:255;"></rect><rect id="10-10" x="9" y="9" width="1" height="1" shape-rendering="crispEdges" style="fill:#a0a0a1;opacity:255;"></rect><rect id="11-10" x="10" y="9" width="1" height="1" shape-rendering="crispEdges" style="fill:#a0a0a1;opacity:255;"></rect><rect id="12-10" x="11" y="9" width="1" height="1" shape-rendering="crispEdges" style="fill:#aeaeae;opacity:255;"></rect><rect id="21-10" x="20" y="9" width="1" height="1" shape-rendering="crispEdges" style="fill:#aeaeae;opacity:255;"></rect><rect id="22-10" x="21" y="9" width="1" height="1" shape-rendering="crispEdges" style="fill:#a0a0a1;opacity:255;"></rect><rect id="23-10" x="22" y="9" width="1" height="1" shape-rendering="crispEdges" style="fill:#a0a0a1;opacity:255;"></rect><rect id="24-10" x="23" y="9" width="1" height="1" shape-rendering="crispEdges" style="fill:#a0a0a1;opacity:255;"></rect><rect id="25-10" x="24" y="9" width="1" height="1" shape-rendering="crispEdges" style="fill:#a0a0a1;opacity:255;"></rect><rect id="26-10" x="25" y="9" width="1" height="1" shape-rendering="crispEdges" style="fill:#a0a0a1;opacity:255;"></rect><rect id="27-10" x="26" y="9" width="1" height="1" shape-rendering="crispEdges" style="fill:#a0a0a1;opacity:255;"></rect><rect id="28-10" x="27" y="9" width="1" height="1" shape-rendering="crispEdges" style="fill:#a0a0a1;opacity:255;"></rect><rect id="29-10" x="28" y="9" width="1" height="1" shape-rendering="crispEdges" style="fill:#a0a0a1;opacity:255;"></rect><rect id="30-10" x="29" y="9" width="1" height="1" shape-rendering="crispEdges" style="fill:#aeaeae;opacity:255;"></rect><rect id="3-11" x="2" y="10" width="1" height="1" shape-rendering="crispEdges" style="fill:#a0a0a1;opacity:255;"></rect><rect id="4-11" x="3" y="10" width="1" height="1" shape-rendering="crispEdges" style="fill:#8a8a8a;opacity:255;"></rect><rect id="5-11" x="4" y="10" width="1" height="1" shape-rendering="crispEdges" style="fill:#aeaeae;opacity:255;"></rect><rect id="6-11" x="5" y="10" width="1" height="1" shape-rendering="crispEdges" style="fill:#aeaeae;opacity:255;"></rect><rect id="7-11" x="6" y="10" width="1" height="1" shape-rendering="crispEdges" style="fill:#a0a0a1;opacity:255;"></rect><rect id="8-11" x="7" y="10" width="1" height="1" shape-rendering="crispEdges" style="fill:#a0a0a1;opacity:255;"></rect><rect id="9-11" x="8" y="10" width="1" height="1" shape-rendering="crispEdges" style="fill:#a0a0a1;opacity:255;"></rect><rect id="10-11" x="9" y="10" width="1" height="1" shape-rendering="crispEdges" style="fill:#a0a0a1;opacity:255;"></rect><rect id="11-11" x="10" y="10" width="1" height="1" shape-rendering="crispEdges" style="fill:#aeaeae;opacity:255;"></rect><rect id="12-11" x="11" y="10" width="1" height="1" shape-rendering="crispEdges" style="fill:#6e3e1d;opacity:255;"></rect><rect id="13-11" x="12" y="10" width="1" height="1" shape-rendering="crispEdges" style="fill:#502e16;opacity:255;"></rect><rect id="20-11" x="19" y="10" width="1" height="1" shape-rendering="crispEdges" style="fill:#aeaeae;opacity:255;"></rect><rect id="21-11" x="20" y="10" width="1" height="1" shape-rendering="crispEdges" style="fill:#a0a0a1;opacity:255;"></rect><rect id="22-11" x="21" y="10" width="1" height="1" shape-rendering="crispEdges" style="fill:#a0a0a1;opacity:255;"></rect><rect id="23-11" x="22" y="10" width="1" height="1" shape-rendering="crispEdges" style="fill:#a0a0a1;opacity:255;"></rect><rect id="24-11" x="23" y="10" width="1" height="1" shape-rendering="crispEdges" style="fill:#a0a0a1;opacity:255;"></rect><rect id="25-11" x="24" y="10" width="1" height="1" shape-rendering="crispEdges" style="fill:#a0a0a1;opacity:255;"></rect><rect id="26-11" x="25" y="10" width="1" height="1" shape-rendering="crispEdges" style="fill:#a0a0a1;opacity:255;"></rect><rect id="27-11" x="26" y="10" width="1" height="1" shape-rendering="crispEdges" style="fill:#a0a0a1;opacity:255;"></rect><rect id="28-11" x="27" y="10" width="1" height="1" shape-rendering="crispEdges" style="fill:#a0a0a1;opacity:255;"></rect><rect id="29-11" x="28" y="10" width="1" height="1" shape-rendering="crispEdges" style="fill:#aeaeae;opacity:255;"></rect><rect id="2-12" x="1" y="11" width="1" height="1" shape-rendering="crispEdges" style="fill:#aeaeae;opacity:255;"></rect><rect id="3-12" x="2" y="11" width="1" height="1" shape-rendering="crispEdges" style="fill:#a0a0a1;opacity:255;"></rect><rect id="4-12" x="3" y="11" width="1" height="1" shape-rendering="crispEdges" style="fill:#a0a0a1;opacity:255;"></rect><rect id="5-12" x="4" y="11" width="1" height="1" shape-rendering="crispEdges" style="fill:#8a8a8a;opacity:255;"></rect><rect id="6-12" x="5" y="11" width="1" height="1" shape-rendering="crispEdges" style="fill:#aeaeae;opacity:255;"></rect><rect id="7-12" x="6" y="11" width="1" height="1" shape-rendering="crispEdges" style="fill:#aeaeae;opacity:255;"></rect><rect id="8-12" x="7" y="11" width="1" height="1" shape-rendering="crispEdges" style="fill:#a0a0a1;opacity:255;"></rect><rect id="9-12" x="8" y="11" width="1" height="1" shape-rendering="crispEdges" style="fill:#a0a0a1;opacity:255;"></rect><rect id="10-12" x="9" y="11" width="1" height="1" shape-rendering="crispEdges" style="fill:#aeaeae;opacity:255;"></rect><rect id="11-12" x="10" y="11" width="1" height="1" shape-rendering="crispEdges" style="fill:#7f4720;opacity:255;"></rect><rect id="12-12" x="11" y="11" width="1" height="1" shape-rendering="crispEdges" style="fill:#7f4720;opacity:255;"></rect><rect id="13-12" x="12" y="11" width="1" height="1" shape-rendering="crispEdges" style="fill:#6e3e1d;opacity:255;"></rect><rect id="14-12" x="13" y="11" width="1" height="1" shape-rendering="crispEdges" style="fill:#502e16;opacity:255;"></rect><rect id="19-12" x="18" y="11" width="1" height="1" shape-rendering="crispEdges" style="fill:#aeaeae;opacity:255;"></rect><rect id="20-12" x="19" y="11" width="1" height="1" shape-rendering="crispEdges" style="fill:#a0a0a1;opacity:255;"></rect><rect id="21-12" x="20" y="11" width="1" height="1" shape-rendering="crispEdges" style="fill:#a0a0a1;opacity:255;"></rect><rect id="22-12" x="21" y="11" width="1" height="1" shape-rendering="crispEdges" style="fill:#a0a0a1;opacity:255;"></rect><rect id="23-12" x="22" y="11" width="1" height="1" shape-rendering="crispEdges" style="fill:#a0a0a1;opacity:255;"></rect><rect id="24-12" x="23" y="11" width="1" height="1" shape-rendering="crispEdges" style="fill:#aeaeae;opacity:255;"></rect><rect id="25-12" x="24" y="11" width="1" height="1" shape-rendering="crispEdges" style="fill:#aeaeae;opacity:255;"></rect><rect id="26-12" x="25" y="11" width="1" height="1" shape-rendering="crispEdges" style="fill:#aeaeae;opacity:255;"></rect><rect id="27-12" x="26" y="11" width="1" height="1" shape-rendering="crispEdges" style="fill:#aeaeae;opacity:255;"></rect><rect id="28-12" x="27" y="11" width="1" height="1" shape-rendering="crispEdges" style="fill:#aeaeae;opacity:255;"></rect><rect id="3-13" x="2" y="12" width="1" height="1" shape-rendering="crispEdges" style="fill:#aeaeae;opacity:255;"></rect><rect id="4-13" x="3" y="12" width="1" height="1" shape-rendering="crispEdges" style="fill:#a0a0a1;opacity:255;"></rect><rect id="5-13" x="4" y="12" width="1" height="1" shape-rendering="crispEdges" style="fill:#a0a0a1;opacity:255;"></rect><rect id="6-13" x="5" y="12" width="1" height="1" shape-rendering="crispEdges" style="fill:#8a8a8a;opacity:255;"></rect><rect id="7-13" x="6" y="12" width="1" height="1" shape-rendering="crispEdges" style="fill:#aeaeae;opacity:255;"></rect><rect id="8-13" x="7" y="12" width="1" height="1" shape-rendering="crispEdges" style="fill:#aeaeae;opacity:255;"></rect><rect id="9-13" x="8" y="12" width="1" height="1" shape-rendering="crispEdges" style="fill:#aeaeae;opacity:255;"></rect><rect id="10-13" x="9" y="12" width="1" height="1" shape-rendering="crispEdges" style="fill:#8e5126;opacity:255;"></rect><rect id="11-13" x="10" y="12" width="1" height="1" shape-rendering="crispEdges" style="fill:#8e5126;opacity:255;"></rect><rect id="12-13" x="11" y="12" width="1" height="1" shape-rendering="crispEdges" style="fill:#7f4720;opacity:255;"></rect><rect id="13-13" x="12" y="12" width="1" height="1" shape-rendering="crispEdges" style="fill:#7f4720;opacity:255;"></rect><rect id="14-13" x="13" y="12" width="1" height="1" shape-rendering="crispEdges" style="fill:#6e3e1d;opacity:255;"></rect><rect id="15-13" x="14" y="12" width="1" height="1" shape-rendering="crispEdges" style="fill:#502e16;opacity:255;"></rect><rect id="18-13" x="17" y="12" width="1" height="1" shape-rendering="crispEdges" style="fill:#aeaeae;opacity:255;"></rect><rect id="19-13" x="18" y="12" width="1" height="1" shape-rendering="crispEdges" style="fill:#a0a0a1;opacity:255;"></rect><rect id="20-13" x="19" y="12" width="1" height="1" shape-rendering="crispEdges" style="fill:#a0a0a1;opacity:255;"></rect><rect id="21-13" x="20" y="12" width="1" height="1" shape-rendering="crispEdges" style="fill:#a0a0a1;opacity:255;"></rect><rect id="22-13" x="21" y="12" width="1" height="1" shape-rendering="crispEdges" style="fill:#a0a0a1;opacity:255;"></rect><rect id="23-13" x="22" y="12" width="1" height="1" shape-rendering="crispEdges" style="fill:#aeaeae;opacity:255;"></rect><rect id="4-14" x="3" y="13" width="1" height="1" shape-rendering="crispEdges" style="fill:#aeaeae;opacity:255;"></rect><rect id="5-14" x="4" y="13" width="1" height="1" shape-rendering="crispEdges" style="fill:#a0a0a1;opacity:255;"></rect><rect id="6-14" x="5" y="13" width="1" height="1" shape-rendering="crispEdges" style="fill:#a0a0a1;opacity:255;"></rect><rect id="7-14" x="6" y="13" width="1" height="1" shape-rendering="crispEdges" style="fill:#8a8a8a;opacity:255;"></rect><rect id="11-14" x="10" y="13" width="1" height="1" shape-rendering="crispEdges" style="fill:#8e5126;opacity:255;"></rect><rect id="12-14" x="11" y="13" width="1" height="1" shape-rendering="crispEdges" style="fill:#8e5126;opacity:255;"></rect><rect id="13-14" x="12" y="13" width="1" height="1" shape-rendering="crispEdges" style="fill:#7f4720;opacity:255;"></rect><rect id="14-14" x="13" y="13" width="1" height="1" shape-rendering="crispEdges" style="fill:#7f4720;opacity:255;"></rect><rect id="15-14" x="14" y="13" width="1" height="1" shape-rendering="crispEdges" style="fill:#6e3e1d;opacity:255;"></rect><rect id="16-14" x="15" y="13" width="1" height="1" shape-rendering="crispEdges" style="fill:#8e5126;opacity:255;"></rect><rect id="17-14" x="16" y="13" width="1" height="1" shape-rendering="crispEdges" style="fill:#aeaeae;opacity:255;"></rect><rect id="18-14" x="17" y="13" width="1" height="1" shape-rendering="crispEdges" style="fill:#a0a0a1;opacity:255;"></rect><rect id="19-14" x="18" y="13" width="1" height="1" shape-rendering="crispEdges" style="fill:#a0a0a1;opacity:255;"></rect><rect id="20-14" x="19" y="13" width="1" height="1" shape-rendering="crispEdges" style="fill:#a0a0a1;opacity:255;"></rect><rect id="21-14" x="20" y="13" width="1" height="1" shape-rendering="crispEdges" style="fill:#a0a0a1;opacity:255;"></rect><rect id="22-14" x="21" y="13" width="1" height="1" shape-rendering="crispEdges" style="fill:#aeaeae;opacity:255;"></rect><rect id="5-15" x="4" y="14" width="1" height="1" shape-rendering="crispEdges" style="fill:#aeaeae;opacity:255;"></rect><rect id="6-15" x="5" y="14" width="1" height="1" shape-rendering="crispEdges" style="fill:#a0a0a1;opacity:255;"></rect><rect id="7-15" x="6" y="14" width="1" height="1" shape-rendering="crispEdges" style="fill:#aeaeae;opacity:255;"></rect><rect id="12-15" x="11" y="14" width="1" height="1" shape-rendering="crispEdges" style="fill:#8e5126;opacity:255;"></rect><rect id="13-15" x="12" y="14" width="1" height="1" shape-rendering="crispEdges" style="fill:#8e5126;opacity:255;"></rect><rect id="14-15" x="13" y="14" width="1" height="1" shape-rendering="crispEdges" style="fill:#7f4720;opacity:255;"></rect><rect id="15-15" x="14" y="14" width="1" height="1" shape-rendering="crispEdges" style="fill:#8e5126;opacity:255;"></rect><rect id="16-15" x="15" y="14" width="1" height="1" shape-rendering="crispEdges" style="fill:#aeaeae;opacity:255;"></rect><rect id="17-15" x="16" y="14" width="1" height="1" shape-rendering="crispEdges" style="fill:#a0a0a1;opacity:255;"></rect><rect id="18-15" x="17" y="14" width="1" height="1" shape-rendering="crispEdges" style="fill:#a0a0a1;opacity:255;"></rect><rect id="19-15" x="18" y="14" width="1" height="1" shape-rendering="crispEdges" style="fill:#a0a0a1;opacity:255;"></rect><rect id="20-15" x="19" y="14" width="1" height="1" shape-rendering="crispEdges" style="fill:#a0a0a1;opacity:255;"></rect><rect id="21-15" x="20" y="14" width="1" height="1" shape-rendering="crispEdges" style="fill:#aeaeae;opacity:255;"></rect><rect id="6-16" x="5" y="15" width="1" height="1" shape-rendering="crispEdges" style="fill:#aeaeae;opacity:255;"></rect><rect id="13-16" x="12" y="15" width="1" height="1" shape-rendering="crispEdges" style="fill:#8e5126;opacity:255;"></rect><rect id="14-16" x="13" y="15" width="1" height="1" shape-rendering="crispEdges" style="fill:#8e5126;opacity:255;"></rect><rect id="15-16" x="14" y="15" width="1" height="1" shape-rendering="crispEdges" style="fill:#aeaeae;opacity:255;"></rect><rect id="16-16" x="15" y="15" width="1" height="1" shape-rendering="crispEdges" style="fill:#a0a0a1;opacity:255;"></rect><rect id="17-16" x="16" y="15" width="1" height="1" shape-rendering="crispEdges" style="fill:#a0a0a1;opacity:255;"></rect><rect id="18-16" x="17" y="15" width="1" height="1" shape-rendering="crispEdges" style="fill:#a0a0a1;opacity:255;"></rect><rect id="19-16" x="18" y="15" width="1" height="1" shape-rendering="crispEdges" style="fill:#a0a0a1;opacity:255;"></rect><rect id="20-16" x="19" y="15" width="1" height="1" shape-rendering="crispEdges" style="fill:#aeaeae;opacity:255;"></rect><rect id="14-17" x="13" y="16" width="1" height="1" shape-rendering="crispEdges" style="fill:#aeaeae;opacity:255;"></rect><rect id="15-17" x="14" y="16" width="1" height="1" shape-rendering="crispEdges" style="fill:#a0a0a1;opacity:255;"></rect><rect id="16-17" x="15" y="16" width="1" height="1" shape-rendering="crispEdges" style="fill:#a0a0a1;opacity:255;"></rect><rect id="17-17" x="16" y="16" width="1" height="1" shape-rendering="crispEdges" style="fill:#a0a0a1;opacity:255;"></rect><rect id="18-17" x="17" y="16" width="1" height="1" shape-rendering="crispEdges" style="fill:#a0a0a1;opacity:255;"></rect><rect id="19-17" x="18" y="16" width="1" height="1" shape-rendering="crispEdges" style="fill:#aeaeae;opacity:255;"></rect><rect id="13-18" x="12" y="17" width="1" height="1" shape-rendering="crispEdges" style="fill:#aeaeae;opacity:255;"></rect><rect id="14-18" x="13" y="17" width="1" height="1" shape-rendering="crispEdges" style="fill:#a0a0a1;opacity:255;"></rect><rect id="15-18" x="14" y="17" width="1" height="1" shape-rendering="crispEdges" style="fill:#a0a0a1;opacity:255;"></rect><rect id="16-18" x="15" y="17" width="1" height="1" shape-rendering="crispEdges" style="fill:#a0a0a1;opacity:255;"></rect><rect id="17-18" x="16" y="17" width="1" height="1" shape-rendering="crispEdges" style="fill:#a0a0a1;opacity:255;"></rect><rect id="18-18" x="17" y="17" width="1" height="1" shape-rendering="crispEdges" style="fill:#aeaeae;opacity:255;"></rect><rect id="19-18" x="18" y="17" width="1" height="1" shape-rendering="crispEdges" style="fill:#6e3e1d;opacity:255;"></rect><rect id="20-18" x="19" y="17" width="1" height="1" shape-rendering="crispEdges" style="fill:#502e16;opacity:255;"></rect><rect id="12-19" x="11" y="18" width="1" height="1" shape-rendering="crispEdges" style="fill:#aeaeae;opacity:255;"></rect><rect id="13-19" x="12" y="18" width="1" height="1" shape-rendering="crispEdges" style="fill:#a0a0a1;opacity:255;"></rect><rect id="14-19" x="13" y="18" width="1" height="1" shape-rendering="crispEdges" style="fill:#a0a0a1;opacity:255;"></rect><rect id="15-19" x="14" y="18" width="1" height="1" shape-rendering="crispEdges" style="fill:#a0a0a1;opacity:255;"></rect><rect id="16-19" x="15" y="18" width="1" height="1" shape-rendering="crispEdges" style="fill:#a0a0a1;opacity:255;"></rect><rect id="17-19" x="16" y="18" width="1" height="1" shape-rendering="crispEdges" style="fill:#aeaeae;opacity:255;"></rect><rect id="18-19" x="17" y="18" width="1" height="1" shape-rendering="crispEdges" style="fill:#7f4720;opacity:255;"></rect><rect id="19-19" x="18" y="18" width="1" height="1" shape-rendering="crispEdges" style="fill:#7f4720;opacity:255;"></rect><rect id="20-19" x="19" y="18" width="1" height="1" shape-rendering="crispEdges" style="fill:#6e3e1d;opacity:255;"></rect><rect id="21-19" x="20" y="18" width="1" height="1" shape-rendering="crispEdges" style="fill:#502e16;opacity:255;"></rect><rect id="11-20" x="10" y="19" width="1" height="1" shape-rendering="crispEdges" style="fill:#aeaeae;opacity:255;"></rect><rect id="12-20" x="11" y="19" width="1" height="1" shape-rendering="crispEdges" style="fill:#a0a0a1;opacity:255;"></rect><rect id="13-20" x="12" y="19" width="1" height="1" shape-rendering="crispEdges" style="fill:#a0a0a1;opacity:255;"></rect><rect id="14-20" x="13" y="19" width="1" height="1" shape-rendering="crispEdges" style="fill:#a0a0a1;opacity:255;"></rect><rect id="15-20" x="14" y="19" width="1" height="1" shape-rendering="crispEdges" style="fill:#a0a0a1;opacity:255;"></rect><rect id="16-20" x="15" y="19" width="1" height="1" shape-rendering="crispEdges" style="fill:#aeaeae;opacity:255;"></rect><rect id="17-20" x="16" y="19" width="1" height="1" shape-rendering="crispEdges" style="fill:#8e5126;opacity:255;"></rect><rect id="18-20" x="17" y="19" width="1" height="1" shape-rendering="crispEdges" style="fill:#8e5126;opacity:255;"></rect><rect id="19-20" x="18" y="19" width="1" height="1" shape-rendering="crispEdges" style="fill:#7f4720;opacity:255;"></rect><rect id="20-20" x="19" y="19" width="1" height="1" shape-rendering="crispEdges" style="fill:#7f4720;opacity:255;"></rect><rect id="21-20" x="20" y="19" width="1" height="1" shape-rendering="crispEdges" style="fill:#6e3e1d;opacity:255;"></rect><rect id="22-20" x="21" y="19" width="1" height="1" shape-rendering="crispEdges" style="fill:#502e16;opacity:255;"></rect><rect id="10-21" x="9" y="20" width="1" height="1" shape-rendering="crispEdges" style="fill:#aeaeae;opacity:255;"></rect><rect id="11-21" x="10" y="20" width="1" height="1" shape-rendering="crispEdges" style="fill:#a0a0a1;opacity:255;"></rect><rect id="12-21" x="11" y="20" width="1" height="1" shape-rendering="crispEdges" style="fill:#a0a0a1;opacity:255;"></rect><rect id="13-21" x="12" y="20" width="1" height="1" shape-rendering="crispEdges" style="fill:#a0a0a1;opacity:255;"></rect><rect id="14-21" x="13" y="20" width="1" height="1" shape-rendering="crispEdges" style="fill:#a0a0a1;opacity:255;"></rect><rect id="15-21" x="14" y="20" width="1" height="1" shape-rendering="crispEdges" style="fill:#aeaeae;opacity:255;"></rect><rect id="18-21" x="17" y="20" width="1" height="1" shape-rendering="crispEdges" style="fill:#8e5126;opacity:255;"></rect><rect id="19-21" x="18" y="20" width="1" height="1" shape-rendering="crispEdges" style="fill:#8e5126;opacity:255;"></rect><rect id="20-21" x="19" y="20" width="1" height="1" shape-rendering="crispEdges" style="fill:#7f4720;opacity:255;"></rect><rect id="21-21" x="20" y="20" width="1" height="1" shape-rendering="crispEdges" style="fill:#7f4720;opacity:255;"></rect><rect id="22-21" x="21" y="20" width="1" height="1" shape-rendering="crispEdges" style="fill:#6e3e1d;opacity:255;"></rect><rect id="23-21" x="22" y="20" width="1" height="1" shape-rendering="crispEdges" style="fill:#502e16;opacity:255;"></rect><rect id="9-22" x="8" y="21" width="1" height="1" shape-rendering="crispEdges" style="fill:#aeaeae;opacity:255;"></rect><rect id="10-22" x="9" y="21" width="1" height="1" shape-rendering="crispEdges" style="fill:#a0a0a1;opacity:255;"></rect><rect id="11-22" x="10" y="21" width="1" height="1" shape-rendering="crispEdges" style="fill:#a0a0a1;opacity:255;"></rect><rect id="12-22" x="11" y="21" width="1" height="1" shape-rendering="crispEdges" style="fill:#a0a0a1;opacity:255;"></rect><rect id="13-22" x="12" y="21" width="1" height="1" shape-rendering="crispEdges" style="fill:#a0a0a1;opacity:255;"></rect><rect id="14-22" x="13" y="21" width="1" height="1" shape-rendering="crispEdges" style="fill:#aeaeae;opacity:255;"></rect><rect id="19-22" x="18" y="21" width="1" height="1" shape-rendering="crispEdges" style="fill:#8e5126;opacity:255;"></rect><rect id="20-22" x="19" y="21" width="1" height="1" shape-rendering="crispEdges" style="fill:#8e5126;opacity:255;"></rect><rect id="21-22" x="20" y="21" width="1" height="1" shape-rendering="crispEdges" style="fill:#7f4720;opacity:255;"></rect><rect id="22-22" x="21" y="21" width="1" height="1" shape-rendering="crispEdges" style="fill:#7f4720;opacity:255;"></rect><rect id="23-22" x="22" y="21" width="1" height="1" shape-rendering="crispEdges" style="fill:#6e3e1d;opacity:255;"></rect><rect id="24-22" x="23" y="21" width="1" height="1" shape-rendering="crispEdges" style="fill:#502e16;opacity:255;"></rect><rect id="8-23" x="7" y="22" width="1" height="1" shape-rendering="crispEdges" style="fill:#aeaeae;opacity:255;"></rect><rect id="9-23" x="8" y="22" width="1" height="1" shape-rendering="crispEdges" style="fill:#a0a0a1;opacity:255;"></rect><rect id="10-23" x="9" y="22" width="1" height="1" shape-rendering="crispEdges" style="fill:#a0a0a1;opacity:255;"></rect><rect id="11-23" x="10" y="22" width="1" height="1" shape-rendering="crispEdges" style="fill:#a0a0a1;opacity:255;"></rect><rect id="12-23" x="11" y="22" width="1" height="1" shape-rendering="crispEdges" style="fill:#a0a0a1;opacity:255;"></rect><rect id="13-23" x="12" y="22" width="1" height="1" shape-rendering="crispEdges" style="fill:#aeaeae;opacity:255;"></rect><rect id="20-23" x="19" y="22" width="1" height="1" shape-rendering="crispEdges" style="fill:#8e5126;opacity:255;"></rect><rect id="21-23" x="20" y="22" width="1" height="1" shape-rendering="crispEdges" style="fill:#8e5126;opacity:255;"></rect><rect id="22-23" x="21" y="22" width="1" height="1" shape-rendering="crispEdges" style="fill:#7f4720;opacity:255;"></rect><rect id="23-23" x="22" y="22" width="1" height="1" shape-rendering="crispEdges" style="fill:#7f4720;opacity:255;"></rect><rect id="24-23" x="23" y="22" width="1" height="1" shape-rendering="crispEdges" style="fill:#6e3e1d;opacity:255;"></rect><rect id="25-23" x="24" y="22" width="1" height="1" shape-rendering="crispEdges" style="fill:#502e16;opacity:255;"></rect><rect id="7-24" x="6" y="23" width="1" height="1" shape-rendering="crispEdges" style="fill:#aeaeae;opacity:255;"></rect><rect id="8-24" x="7" y="23" width="1" height="1" shape-rendering="crispEdges" style="fill:#a0a0a1;opacity:255;"></rect><rect id="9-24" x="8" y="23" width="1" height="1" shape-rendering="crispEdges" style="fill:#a0a0a1;opacity:255;"></rect><rect id="10-24" x="9" y="23" width="1" height="1" shape-rendering="crispEdges" style="fill:#a0a0a1;opacity:255;"></rect><rect id="11-24" x="10" y="23" width="1" height="1" shape-rendering="crispEdges" style="fill:#a0a0a1;opacity:255;"></rect><rect id="12-24" x="11" y="23" width="1" height="1" shape-rendering="crispEdges" style="fill:#aeaeae;opacity:255;"></rect><rect id="21-24" x="20" y="23" width="1" height="1" shape-rendering="crispEdges" style="fill:#8e5126;opacity:255;"></rect><rect id="22-24" x="21" y="23" width="1" height="1" shape-rendering="crispEdges" style="fill:#8e5126;opacity:255;"></rect><rect id="23-24" x="22" y="23" width="1" height="1" shape-rendering="crispEdges" style="fill:#7f4720;opacity:255;"></rect><rect id="24-24" x="23" y="23" width="1" height="1" shape-rendering="crispEdges" style="fill:#7f4720;opacity:255;"></rect><rect id="25-24" x="24" y="23" width="1" height="1" shape-rendering="crispEdges" style="fill:#6e3e1d;opacity:255;"></rect><rect id="26-24" x="25" y="23" width="1" height="1" shape-rendering="crispEdges" style="fill:#502e16;opacity:255;"></rect><rect id="6-25" x="5" y="24" width="1" height="1" shape-rendering="crispEdges" style="fill:#aeaeae;opacity:255;"></rect><rect id="7-25" x="6" y="24" width="1" height="1" shape-rendering="crispEdges" style="fill:#a0a0a1;opacity:255;"></rect><rect id="8-25" x="7" y="24" width="1" height="1" shape-rendering="crispEdges" style="fill:#a0a0a1;opacity:255;"></rect><rect id="9-25" x="8" y="24" width="1" height="1" shape-rendering="crispEdges" style="fill:#a0a0a1;opacity:255;"></rect><rect id="10-25" x="9" y="24" width="1" height="1" shape-rendering="crispEdges" style="fill:#a0a0a1;opacity:255;"></rect><rect id="11-25" x="10" y="24" width="1" height="1" shape-rendering="crispEdges" style="fill:#aeaeae;opacity:255;"></rect><rect id="22-25" x="21" y="24" width="1" height="1" shape-rendering="crispEdges" style="fill:#8e5126;opacity:255;"></rect><rect id="23-25" x="22" y="24" width="1" height="1" shape-rendering="crispEdges" style="fill:#8e5126;opacity:255;"></rect><rect id="24-25" x="23" y="24" width="1" height="1" shape-rendering="crispEdges" style="fill:#7f4720;opacity:255;"></rect><rect id="25-25" x="24" y="24" width="1" height="1" shape-rendering="crispEdges" style="fill:#7f4720;opacity:255;"></rect><rect id="26-25" x="25" y="24" width="1" height="1" shape-rendering="crispEdges" style="fill:#6e3e1d;opacity:255;"></rect><rect id="27-25" x="26" y="24" width="1" height="1" shape-rendering="crispEdges" style="fill:#502e16;opacity:255;"></rect><rect id="5-26" x="4" y="25" width="1" height="1" shape-rendering="crispEdges" style="fill:#aeaeae;opacity:255;"></rect><rect id="6-26" x="5" y="25" width="1" height="1" shape-rendering="crispEdges" style="fill:#a0a0a1;opacity:255;"></rect><rect id="7-26" x="6" y="25" width="1" height="1" shape-rendering="crispEdges" style="fill:#a0a0a1;opacity:255;"></rect><rect id="8-26" x="7" y="25" width="1" height="1" shape-rendering="crispEdges" style="fill:#a0a0a1;opacity:255;"></rect><rect id="9-26" x="8" y="25" width="1" height="1" shape-rendering="crispEdges" style="fill:#a0a0a1;opacity:255;"></rect><rect id="10-26" x="9" y="25" width="1" height="1" shape-rendering="crispEdges" style="fill:#aeaeae;opacity:255;"></rect><rect id="23-26" x="22" y="25" width="1" height="1" shape-rendering="crispEdges" style="fill:#8e5126;opacity:255;"></rect><rect id="24-26" x="23" y="25" width="1" height="1" shape-rendering="crispEdges" style="fill:#8e5126;opacity:255;"></rect><rect id="25-26" x="24" y="25" width="1" height="1" shape-rendering="crispEdges" style="fill:#7f4720;opacity:255;"></rect><rect id="26-26" x="25" y="25" width="1" height="1" shape-rendering="crispEdges" style="fill:#7f4720;opacity:255;"></rect><rect id="27-26" x="26" y="25" width="1" height="1" shape-rendering="crispEdges" style="fill:#6e3e1d;opacity:255;"></rect><rect id="28-26" x="27" y="25" width="1" height="1" shape-rendering="crispEdges" style="fill:#502e16;opacity:255;"></rect><rect id="4-27" x="3" y="26" width="1" height="1" shape-rendering="crispEdges" style="fill:#aeaeae;opacity:255;"></rect><rect id="5-27" x="4" y="26" width="1" height="1" shape-rendering="crispEdges" style="fill:#a0a0a1;opacity:255;"></rect><rect id="6-27" x="5" y="26" width="1" height="1" shape-rendering="crispEdges" style="fill:#a0a0a1;opacity:255;"></rect><rect id="7-27" x="6" y="26" width="1" height="1" shape-rendering="crispEdges" style="fill:#a0a0a1;opacity:255;"></rect><rect id="8-27" x="7" y="26" width="1" height="1" shape-rendering="crispEdges" style="fill:#a0a0a1;opacity:255;"></rect><rect id="9-27" x="8" y="26" width="1" height="1" shape-rendering="crispEdges" style="fill:#aeaeae;opacity:255;"></rect><rect id="24-27" x="23" y="26" width="1" height="1" shape-rendering="crispEdges" style="fill:#8e5126;opacity:255;"></rect><rect id="25-27" x="24" y="26" width="1" height="1" shape-rendering="crispEdges" style="fill:#8e5126;opacity:255;"></rect><rect id="26-27" x="25" y="26" width="1" height="1" shape-rendering="crispEdges" style="fill:#7f4720;opacity:255;"></rect><rect id="27-27" x="26" y="26" width="1" height="1" shape-rendering="crispEdges" style="fill:#7f4720;opacity:255;"></rect><rect id="28-27" x="27" y="26" width="1" height="1" shape-rendering="crispEdges" style="fill:#6e3e1d;opacity:255;"></rect><rect id="29-27" x="28" y="26" width="1" height="1" shape-rendering="crispEdges" style="fill:#502e16;opacity:255;"></rect><rect id="3-28" x="2" y="27" width="1" height="1" shape-rendering="crispEdges" style="fill:#8a8a8a;opacity:255;"></rect><rect id="4-28" x="3" y="27" width="1" height="1" shape-rendering="crispEdges" style="fill:#a0a0a1;opacity:255;"></rect><rect id="5-28" x="4" y="27" width="1" height="1" shape-rendering="crispEdges" style="fill:#a0a0a1;opacity:255;"></rect><rect id="6-28" x="5" y="27" width="1" height="1" shape-rendering="crispEdges" style="fill:#a0a0a1;opacity:255;"></rect><rect id="7-28" x="6" y="27" width="1" height="1" shape-rendering="crispEdges" style="fill:#a0a0a1;opacity:255;"></rect><rect id="8-28" x="7" y="27" width="1" height="1" shape-rendering="crispEdges" style="fill:#aeaeae;opacity:255;"></rect><rect id="25-28" x="24" y="27" width="1" height="1" shape-rendering="crispEdges" style="fill:#8e5126;opacity:255;"></rect><rect id="26-28" x="25" y="27" width="1" height="1" shape-rendering="crispEdges" style="fill:#8e5126;opacity:255;"></rect><rect id="27-28" x="26" y="27" width="1" height="1" shape-rendering="crispEdges" style="fill:#7f4720;opacity:255;"></rect><rect id="28-28" x="27" y="27" width="1" height="1" shape-rendering="crispEdges" style="fill:#7f4720;opacity:255;"></rect><rect id="29-28" x="28" y="27" width="1" height="1" shape-rendering="crispEdges" style="fill:#6e3e1d;opacity:255;"></rect><rect id="30-28" x="29" y="27" width="1" height="1" shape-rendering="crispEdges" style="fill:#502e16;opacity:255;"></rect><rect id="3-29" x="2" y="28" width="1" height="1" shape-rendering="crispEdges" style="fill:#8a8a8a;opacity:255;"></rect><rect id="4-29" x="3" y="28" width="1" height="1" shape-rendering="crispEdges" style="fill:#a0a0a1;opacity:255;"></rect><rect id="5-29" x="4" y="28" width="1" height="1" shape-rendering="crispEdges" style="fill:#a0a0a1;opacity:255;"></rect><rect id="6-29" x="5" y="28" width="1" height="1" shape-rendering="crispEdges" style="fill:#a0a0a1;opacity:255;"></rect><rect id="7-29" x="6" y="28" width="1" height="1" shape-rendering="crispEdges" style="fill:#aeaeae;opacity:255;"></rect><rect id="26-29" x="25" y="28" width="1" height="1" shape-rendering="crispEdges" style="fill:#8e5126;opacity:255;"></rect><rect id="27-29" x="26" y="28" width="1" height="1" shape-rendering="crispEdges" style="fill:#8e5126;opacity:255;"></rect><rect id="28-29" x="27" y="28" width="1" height="1" shape-rendering="crispEdges" style="fill:#7f4720;opacity:255;"></rect><rect id="29-29" x="28" y="28" width="1" height="1" shape-rendering="crispEdges" style="fill:#7f4720;opacity:255;"></rect><rect id="30-29" x="29" y="28" width="1" height="1" shape-rendering="crispEdges" style="fill:#6e3e1d;opacity:255;"></rect><rect id="4-30" x="3" y="29" width="1" height="1" shape-rendering="crispEdges" style="fill:#8a8a8a;opacity:255;"></rect><rect id="5-30" x="4" y="29" width="1" height="1" shape-rendering="crispEdges" style="fill:#a0a0a1;opacity:255;"></rect><rect id="6-30" x="5" y="29" width="1" height="1" shape-rendering="crispEdges" style="fill:#aeaeae;opacity:255;"></rect><rect id="27-30" x="26" y="29" width="1" height="1" shape-rendering="crispEdges" style="fill:#8e5126;opacity:255;"></rect><rect id="28-30" x="27" y="29" width="1" height="1" shape-rendering="crispEdges" style="fill:#8e5126;opacity:255;"></rect><rect id="29-30" x="28" y="29" width="1" height="1" shape-rendering="crispEdges" style="fill:#7f4720;opacity:255;"></rect><rect id="5-31" x="4" y="30" width="1" height="1" shape-rendering="crispEdges" style="fill:#8a8a8a;opacity:255;"></rect><rect id="28-31" x="27" y="30" width="1" height="1" shape-rendering="crispEdges" style="fill:#8e5126;opacity:255;"></rect></svg>