<svg viewBox="0 -0.5 32 32" width="32" height="32" shape-rendering="crispedges" xmlns="http://www.w3.org/2000/svg" xmlns:xlink="http://www.w3.org/1999/xlink">
    <style>
        :root, .palette0 {color: currentColor;
            --color0: #ff7878;
            --color1: #000;
            --color2: #ffe04c;
            --color3: #ffd300;
            --color4: #f00;
            --color5: #ffc300;
            --color6: #fff;
            --color7: #da00ff;
            --color8: #ffba1f;
            --color9: #ffb100;
            --color10: #da9700;
            --color11: #939393;
            --color12: #b3b3b3;
            --color13: #0af;
            --color14: #1db4ff;
            --color15: #00a3ff;
            --color16: #3d00ff;
            --color17: #ac0000;
            --color18: #ce0000;
            --color19: #ff5c5c;
            --color20: #ff2c2c;
            --color21: #ff3bf1;
            --color22: #ff7cf5;
            --color23: #ffd8fc;
            --color24: #ffc5fb;
            --color25: #ffb0f9;
            --color26: #886e00;
            --color27: #c49f00;
            --color28: #ffe05c;
            --color29: #ffd833;
            --color30: #ffce00;
            --color31: #067d00;
            --color32: #09b500;
            --color33: #64ff5c;
            --color34: #40ff37;
            --color35: #0cff00;
            --color36: #160092;
            --color37: #1e00c2;
            --color38: #755cff;
            --color39: #4f30ff;
            --color40: #2700ff;
            --color41: #006096;
            --color42: #0082cc;
            --color43: #5cc4ff;
            --color44: #26b1ff;
            --color45: #5d009d;
            --color46: #7d00d3;
            --color47: #c269ff;
            --color48: #ad35ff;
            --color49: #9700ff;
            --color50: #502e16;
            --color51: #6e3e1d;
            --color52: #b56730;
            --color53: #8e5126;
            --color54: #7f4720;
            --color55: #404040;
            --color56: #4f4f4f;
            --color57: #7a7a7a;
            --color58: #6c6c6c;
            --color59: #676767;
            --color60: #7b7b7b;
            --color61: #a3a3a3;
            --color62: #e4e4e4;
            --color63: #d1d1d1;
            --color64: #cb0000;
            --color65: #b50000;
            --color66: #f50000;
            --color67: #d10000;
            --color68: #f60000;
            --color69: #c00;
            --color70: #d30000;
            --color71: #ff0c0c;
            --color72: #f70000;
            --color73: #cd0000;
            --color74: #ff1717;
            --color75: #fc0000;
            --color76: #d00000;
            --color77: #ff1c1c;
            --color78: #f80000;
            --color79: #ff1919;
            --color80: #c00000;
            --color81: #fa0000;
            --color82: #f90000;
            --color83: #d20000;
            --color84: #bd0000;
            --color85: #d60000;
            --color86: #ff1616;
            --color87: #ff1d1d;
            --color88: #d50000;
            --color89: #d70000;
            --color90: #fb0000;
            --color91: #fa1414;
            --color92: #ff0606;
            --color93: #ff3838;
            --color94: #ff2d2d;
            --color95: #e10202;
            --color96: #ff4242;
            --color97: #ff5151;
            --color98: #ff0808;
            --color99: #ff2828;
            --color100: #ff1f1f;
            --color101: #ff4a4a;
            --color102: #ff1b1b;
            --color103: #b60000;
            --color104: #ff2121;
            --color105: #ff2727;
            --color106: #ff5050;
            --color107: #ff4b4b;
            --color108: #ff2525;
            --color109: #d00;
            --color110: #fe0808;
            --color111: #ff0b0b;
            --color112: #fe0a0a;
            --color113: #b20000;
            --color114: #b40000;
            --color115: #de0000;
            --color116: #ff1010;
            --color117: #dc0000;
            --color118: #b30000;
            --color119: #b70000;
            --color120: #e00000;
            --color121: #ff0404;
            --color122: #ff0101;
            --color123: #df0000;
            --color124: #b80000;
            --color125: #e30000;
            --color126: #ff0202;
            --color127: #ff1414;
            --color128: #e10000;
            --color129: #b90000;
            --color130: #bc0000;
            --color131: #e70000;
            --color132: #ff1818;
            --color133: #e50000;
            --color134: #b00;
            --color135: #ba0000;
            --color136: #e60000;
            --color137: #ff2323;
            --color138: #e40000;
            --color139: #fd0000;
            --color140: #ff2424;
            --color141: #ff5656;
            --color142: #ff5959;
            --color143: #fd1717;
            --color144: #d40000;
            --color145: #ff2b2b;
            --color146: #ff4d4d;
            --color147: #ff2626;
            --color148: #ff2929;
            --color149: #fe1818;
            --color150: #ff5b5b;
            --color151: #f44;
            --color152: #fe0000;
            --color153: #ff1e1e;
            --color154: #ff1a1a;
            --color155: #0f0f0f;
            --color156: #434343;
            --color157: #232323;
            --color158: #1c1c1c;
            --color159: #f1f1f1;
            --color160: #eaeaea;
            --color161: #a5a5a5;
            --color162: #7f7f7f;
            --color163: #0e0e0e;
            --color164: #151515;
            --color165: #1b1b1b;
            --color166: #f5f5f5;
            --color167: #fbfbfb;
            --color168: #e7e7e7;
            --color169: #f7f7f7;
            --color170: #efefef;
            --color171: #f8f8f8;
            --color172: #fefefe;
            --color173: #f6f6f6;
            --color174: #f2f2f2;
            --color175: #f9f9f9;
            --color176: #eee;
            --color177: #e8e8e8;
            --color178: #fafafa;
            --color179: #f0f0f0;
            --color180: #f3f3f3;
            --color181: #e5e5e5;
            --color182: #ececec;
            --color183: #fcfcfc;
            --color184: #e6e6e6;
            --color185: #fdfdfd;
            --color186: #ededed;
            --color187: #e9e9e9;
            --color188: #cf38ff;
            --color189: #cf0aff;
            --color190: #ae77f7;
            --color191: #817ef9;
            --color192: #677ffb;
            --color193: #687bfe;
            --color194: #8c6eff;
            --color195: #a569ff;
            --color196: #cf4cff;
            --color197: #ce6cfa;
            --color198: #ce70f8;
            --color199: #b177f7;
            --color200: #737efa;
            --color201: #4185fc;
            --color202: #2589fe;
            --color203: #0e8eff;
            --color204: #547fff;
            --color205: #986aff;
            --color206: #9f60ff;
            --color207: #cf2fff;
            --color208: #1989fe;
            --color209: #6c79ff;
            --color210: #cf08ff;
            --color211: #cf23ff;
            --color212: #cf40ff;
            --color213: #cf43ff;
            --color214: #cf5cff;
            --color215: #cf68fb;
            --color216: #ce73f6;
            --color217: #9d7bf8;
            --color218: #6aabff;
            --color219: #8088ff;
            --color220: #9664ff;
            --color221: #8966ff;
            --color222: #7370ff;
            --color223: #7371ff;
            --color224: #687aff;
            --color225: #4184ff;
            --color226: #3487fe;
            --color227: #1b89fe;
            --color228: #07c687;
            --color229: #06c093;
            --color230: #02aac2;
            --color231: #06adc6;
            --color232: #0cc0a3;
            --color233: #13ca93;
            --color234: #0ec2a1;
            --color235: #09aeca;
            --color236: #2fa4ff;
            --color237: #52acff;
            --color238: #40a8ff;
            --color239: #25a0ff;
            --color240: #149cff;
            --color241: #0091ff;
            --color242: #1df33b;
            --color243: #18b8c4;
            --color244: #3aa5ff;
            --color245: #0d9cff;
            --color246: #0598ff;
            --color247: #0092ff;
            --color248: #008fff;
            --color249: #008eff;
            --color250: #20ff20;
            --color251: #38ee60;
            --color252: #4dd6a7;
            --color253: #70d1ca;
            --color254: #69b8f4;
            --color255: #66b1ff;
            --color256: #35a4ff;
            --color257: #1a9dff;
            --color258: #0a98ff;
            --color259: #0095ff;
            --color260: #04a9c8;
            --color261: #04bb9d;
            --color262: #08d26e;
            --color263: #09f51f;
            --color264: #a0ef29;
            --color265: #93f127;
            --color266: #84f324;
            --color267: #8ff332;
            --color268: #64f82f;
            --color269: #3aff3a;
            --color270: #62ff62;
            --color271: #7df989;
            --color272: #4ce87f;
            --color273: #30d09f;
            --color274: #20cb9b;
            --color275: #12ca91;
            --color276: #1aeb4b;
            --color277: #ebe952;
            --color278: #9ff349;
            --color279: #7bfc67;
            --color280: #7dff7d;
            --color281: #ffe645;
            --color282: #d6f178;
            --color283: #aff87b;
            --color284: #8bfd7e;
            --color285: #7fff7f;
            --color286: #59ff59;
            --color287: #47ff47;
            --color288: #42ff42;
            --color289: #35ff35;
            --color290: #24ff24;
            --color291: #15ff15;
            --color292: #0dff0d;
            --color293: #6af51d;
            --color294: #fdc545;
            --color295: #feba4a;
            --color296: #feab4d;
            --color297: #feab4f;
            --color298: #ffa55c;
            --color299: #ffa95e;
            --color300: #ffb865;
            --color301: #ffdb5b;
            --color302: #ffe968;
            --color303: #e6ef76;
            --color304: #d2ee55;
            --color305: #94f54c;
            --color306: #70fa47;
            --color307: #66f93c;
            --color308: #5af92e;
            --color309: #7af532;
            --color310: #91f337;
            --color311: #89f32a;
            --color312: #aaee2b;
            --color313: #e6e837;
            --color314: #ff9f6d;
            --color315: #ffa96c;
            --color316: #ffc476;
            --color317: #ffd97b;
            --color318: #ffe875;
            --color319: #ffe750;
            --color320: #ffe643;
            --color321: #ff874c;
            --color322: #ff8955;
            --color323: #ff9c66;
            --color324: #ffa782;
            --color325: #ffb589;
            --color326: #ffda7a;
            --color327: #ffea74;
            --color328: #ffe85a;
            --color329: #ffe756;
            --color330: #ffe754;
            --color331: #ffe74e;
            --color332: #ffe648;
            --color333: #fde53d;
            --color334: #fce53b;
            --color335: #fdd142;
            --color336: #feb44b;
            --color337: #ff9c54;
            --color338: #ff884d;
            --color339: #ff8c68;
            --color340: #ff635e;
            --color341: #ff4240;
            --color342: #ff6369;
            --color343: #ff817c;
            --color344: #ff896e;
            --color345: #ff9872;
            --color346: #ffb489;
            --color347: #ffc068;
            --color348: #ffc462;
            --color349: #ffcd58;
            --color350: #ffc952;
            --color351: #ffc155;
            --color352: #ffb259;
            --color353: #ffac52;
            --color354: #ff9b53;
            --color355: #ff5552;
            --color356: #ff7b8b;
            --color357: #ff9575;
            --color358: #ffaa8c;
            --color359: #ffa988;
            --color360: #ffa174;
            --color361: #ff9758;
            --color362: #ff9756;
            --color363: #ff884c;
            --color364: #ff895e;
            --color365: #ff726a;
            --color366: #ff4850;
            --color367: #ff5574;
            --color368: #ff7088;
            --color369: #ff8e79;
            --color370: #fe9a6a;
            --color371: #ffa06f;
            --color372: #ff9d68;
            --color373: #ff9b62;
            --color374: #ff9a5f;
            --color375: #ff985a;
            --color376: #ff8a4c;
            --color377: #ff8a73;
            --color378: #ff6973;
            --color379: #ff896f;
            --color380: #ff896c;
            --color381: #ff896a;
            --color382: #ff8969;
            --color383: #ff8777;
            --color384: #ff736a;
            --color385: #ff587b;
            --color386: #ff5677;
            --color387: #ff4c5b;
            --color388: #ff4852;
            --color389: #ff464c;
            --color390: #ff4549;
            --color391: #ff413e;
            --color392: #fff000;
            --color393: #ff8000;
            --color394: #fbd000;
            --color395: #473b00;
            --color396: #fed200;
            --color397: #5a4b00;
            --color398: #927900;
            --color399: #544500;
            --color400: #f0c700;
            --color401: #231d00;
            --color402: #a78a00;
            --color403: #957b00;
            --color404: #ffc800;
            --color405: #927800;
            --color406: #eec500;
            --color407: #ffcd00;
            --color408: #413600;
            --color409: #caa700;
            --color410: #ffcf00;
            --color411: #615000;
            --color412: #161200;
            --color413: #d2ae00;
            --color414: #ffd200;
            --color415: #ffc600;
            --color416: #796400;
            --color417: #0f0d00;
            --color418: #dfb900;
            --color419: #ffd610;
            --color420: #ffd613;
            --color421: #ffd81b;
            --color422: #947a00;
            --color423: #bb9b00;
            --color424: #ffdf45;
            --color425: #ffde41;
            --color426: #231e0a;
            --color427: #92802b;
            --color428: #ffd303;
            --color429: #ffd509;
            --color430: #ffdf44;
            --color431: #f0d348;
            --color432: #ffdd38;
            --color433: #ffd50e;
            --color434: #ffda32;
            --color435: #ffd301;
            --color436: #ffcb00;
            --color437: #927902;
            --color438: #ffd32a;
            --color439: #ffc500;
            --color440: #ffce1d;
            --color441: #ffd42e;
            --color442: #ffde47;
            --color443: #ffd124;
            --color444: #ffcc17;
            --color445: #fd4;
            --color446: #ffc80e;
            --color447: #ffc910;
            --color448: #d7b200;
            --color449: #ffc200;
            --color450: #ffc504;
            --color451: #fec200;
            --color452: #fec300;
            --color453: #909090;
            --color454: #ff994c;
            --color455: #ff7a00;
            --color456: #ff6200;
            --color457: #7c00c3;
            --color458: #be3dea;
            --color459: #ac00e0;
            --color460: #7b00c1;
            --color461: #7e00c1;
            --color462: #9400e5;
            --color463: #7c00c1;
            --color464: #9d4100;
            --color465: #ca5300;
            --color466: #ff9f5c;
            --color467: #ff7717;
            --color468: #ff6900;
        }
    </style>
    <metadata>Made with Pixels to Svg https://codepen.io/shshaw/pen/XbxvNj</metadata>
    <path stroke="var(--color154, #ff1a1a)" d="M19 1h1M23 2h1" />
    <path stroke="var(--color153, #ff1e1e)" d="M20 1h2M9 13h1" />
    <path stroke="var(--color4, #f00)" d="M22 1h1M26 1h3M7 2h8M30 2h2M5 3h10M30 3h1M5 4h3M30 4h1M5 5h1M29 5h2M28 6h2M28 7h1M27 8h1M26 9h1M23 10h3M15 11h3M24 11h1M19 12h1M19 13h2M19 14h2M19 15h3M19 16h2M18 17h2M28 17h2M17 18h3M28 18h2M16 19h2M28 19h2M4 20h1M15 20h3M28 20h2M6 21h1M14 21h2M28 21h2M13 22h3M28 22h2M8 23h1M13 23h1M28 23h2M9 24h4M26 24h4M10 25h2M25 25h4M22 26h6M19 27h8M19 28h5" />
    <path stroke="var(--color152, #fe0000)" d="M29 1h2M31 3h1M14 11h1M18 11h1M9 12h1M20 12h1M21 14h1" />
    <path stroke="var(--color151, #f44)" d="M18 2h1" />
    <path stroke="var(--color19, #ff5c5c)" d="M19 2h2M19 3h3M2 13h5M2 14h5M3 15h4" />
    <path stroke="var(--color150, #ff5b5b)" d="M21 2h1" />
    <path stroke="var(--color20, #ff2c2c)" d="M22 2h1M27 2h2M22 3h1M25 3h4M18 4h1M22 4h7M19 5h9M20 6h8M21 7h6M22 8h4M23 9h2M8 13h1M13 13h5M8 14h1M12 14h6M1 15h1M8 15h10M7 16h11M2 17h14M4 18h12M5 19h10M7 20h7M8 21h5M9 22h3" />
    <path stroke="var(--color149, #fe1818)" d="M25 2h1M17 3h1" />
    <path stroke="var(--color148, #ff2929)" d="M26 2h1M24 3h1M18 5h1M6 20h1" />
    <path stroke="var(--color147, #ff2626)" d="M29 2h1M29 3h1M16 17h1" />
    <path stroke="var(--color146, #ff4d4d)" d="M18 3h1" />
    <path stroke="var(--color145, #ff2b2b)" d="M23 3h1" />
    <path stroke="var(--color144, #d40000)" d="M3 4h2M2 5h3M4 6h1M27 15h3M27 16h3M0 17h1M19 19h1M3 20h1M5 22h1M16 22h1M17 27h2M17 28h2" />
    <path stroke="var(--color143, #fd1717)" d="M17 4h1" />
    <path stroke="var(--color142, #ff5959)" d="M19 4h2" />
    <path stroke="var(--color141, #ff5656)" d="M21 4h1" />
    <path stroke="var(--color140, #ff2424)" d="M29 4h1" />
    <path stroke="var(--color139, #fd0000)" d="M31 4h1" />
    <path stroke="var(--color138, #e40000)" d="M17 5h1" />
    <path stroke="var(--color137, #ff2323)" d="M28 5h1M11 14h1" />
    <path stroke="var(--color136, #e60000)" d="M31 5h1" />
    <path stroke="var(--color135, #ba0000)" d="M1 6h3M1 7h3M30 7h1M1 8h2M1 9h2M27 13h2M27 14h2M21 18h1M5 23h1M16 23h1M15 27h2M15 28h2" />
    <path stroke="var(--color134, #b00)" d="M17 6h1" />
    <path stroke="var(--color133, #e50000)" d="M18 6h1" />
    <path stroke="var(--color132, #ff1818)" d="M19 6h1" />
    <path stroke="var(--color131, #e70000)" d="M30 6h1" />
    <path stroke="var(--color130, #bc0000)" d="M31 6h1M3 21h1" />
    <path stroke="var(--color129, #b90000)" d="M18 7h1M0 18h1M19 20h1M14 25h1" />
    <path stroke="var(--color128, #e10000)" d="M19 7h1" />
    <path stroke="var(--color127, #ff1414)" d="M20 7h1M18 12h1" />
    <path stroke="var(--color126, #ff0202)" d="M27 7h1M22 9h1M17 17h1" />
    <path stroke="var(--color125, #e30000)" d="M29 7h1M21 16h1" />
    <path stroke="var(--color124, #b80000)" d="M19 8h1" />
    <path stroke="var(--color123, #df0000)" d="M20 8h1" />
    <path stroke="var(--color122, #ff0101)" d="M21 8h1" />
    <path stroke="var(--color121, #ff0404)" d="M26 8h1M13 12h1M7 22h1" />
    <path stroke="var(--color120, #e00000)" d="M28 8h1M25 11h1" />
    <path stroke="var(--color119, #b70000)" d="M29 8h1M25 12h1M2 20h1M7 25h1M12 27h1" />
    <path stroke="var(--color118, #b30000)" d="M20 9h1M27 10h1M6 24h1M8 26h1M11 28h1" />
    <path stroke="var(--color117, #dc0000)" d="M21 9h1M22 10h1" />
    <path stroke="var(--color116, #ff1010)" d="M25 9h1" />
    <path stroke="var(--color115, #de0000)" d="M27 9h1M26 10h1" />
    <path stroke="var(--color114, #b40000)" d="M28 9h1M26 11h1M4 22h1M15 24h1" />
    <path stroke="var(--color113, #b20000)" d="M21 10h1M22 11h1" />
    <path stroke="var(--color112, #fe0a0a)" d="M3 11h1" />
    <path stroke="var(--color111, #ff0b0b)" d="M4 11h3M2 18h1M5 20h1" />
    <path stroke="var(--color110, #fe0808)" d="M7 11h1M0 14h1" />
    <path stroke="var(--color109, #d00)" d="M23 11h1" />
    <path stroke="var(--color108, #ff2525)" d="M2 12h1M7 21h1M8 22h1" />
    <path stroke="var(--color107, #ff4b4b)" d="M3 12h1" />
    <path stroke="var(--color106, #ff5050)" d="M4 12h3" />
    <path stroke="var(--color105, #ff2727)" d="M7 12h1M1 14h1" />
    <path stroke="var(--color104, #ff2121)" d="M8 12h1M14 12h4M10 14h1M4 19h1M15 19h1M9 23h3" />
    <path stroke="var(--color103, #b60000)" d="M23 12h1M17 22h1" />
    <path stroke="var(--color18, #ce0000)" d="M24 12h1M4 21h1M15 23h1" />
    <path stroke="var(--color102, #ff1b1b)" d="M1 13h1M18 13h1M18 14h1M18 15h1" />
    <path stroke="var(--color101, #ff4a4a)" d="M7 13h1M7 14h1" />
    <path stroke="var(--color100, #ff1f1f)" d="M12 13h1M1 16h1" />
    <path stroke="var(--color17, #ac0000)" d="M24 13h1" />
    <path stroke="var(--color99, #ff2828)" d="M9 14h1" />
    <path stroke="var(--color98, #ff0808)" d="M0 15h1" />
    <path stroke="var(--color97, #ff5151)" d="M2 15h1" />
    <path stroke="var(--color96, #ff4242)" d="M7 15h1" />
    <path stroke="var(--color95, #e10202)" d="M0 16h1" />
    <path stroke="var(--color94, #ff2d2d)" d="M2 16h1" />
    <path stroke="var(--color93, #ff3838)" d="M3 16h4" />
    <path stroke="var(--color92, #ff0606)" d="M18 16h1" />
    <path stroke="var(--color91, #fa1414)" d="M1 17h1" />
    <path stroke="var(--color90, #fb0000)" d="M20 17h1" />
    <path stroke="var(--color89, #d70000)" d="M21 17h1" />
    <path stroke="var(--color88, #d50000)" d="M1 18h1M18 20h1" />
    <path stroke="var(--color87, #ff1d1d)" d="M3 18h1" />
    <path stroke="var(--color86, #ff1616)" d="M16 18h1" />
    <path stroke="var(--color85, #d60000)" d="M20 18h1" />
    <path stroke="var(--color84, #bd0000)" d="M1 19h1M18 21h1" />
    <path stroke="var(--color83, #d20000)" d="M2 19h1M7 24h1M12 26h1" />
    <path stroke="var(--color82, #f90000)" d="M3 19h1" />
    <path stroke="var(--color81, #fa0000)" d="M18 19h1M13 24h1" />
    <path stroke="var(--color80, #c00000)" d="M20 19h1" />
    <path stroke="var(--color79, #ff1919)" d="M14 20h1" />
    <path stroke="var(--color78, #f80000)" d="M5 21h1M16 21h1M14 23h1M8 24h1M11 26h1" />
    <path stroke="var(--color77, #ff1c1c)" d="M13 21h1" />
    <path stroke="var(--color76, #d00000)" d="M17 21h1" />
    <path stroke="var(--color75, #fc0000)" d="M6 22h1" />
    <path stroke="var(--color74, #ff1717)" d="M12 22h1" />
    <path stroke="var(--color73, #cd0000)" d="M6 23h1" />
    <path stroke="var(--color72, #f70000)" d="M7 23h1M12 25h1" />
    <path stroke="var(--color71, #ff0c0c)" d="M12 23h1" />
    <path stroke="var(--color70, #d30000)" d="M14 24h1" />
    <path stroke="var(--color69, #c00)" d="M8 25h1M13 25h1M11 27h1" />
    <path stroke="var(--color68, #f60000)" d="M9 25h1" />
    <path stroke="var(--color67, #d10000)" d="M9 26h1" />
    <path stroke="var(--color66, #f50000)" d="M10 26h1" />
    <path stroke="var(--color65, #b50000)" d="M13 26h1M9 27h1M10 28h1" />
    <path stroke="var(--color64, #cb0000)" d="M10 27h1" />
</svg>