<svg viewBox="0 -0.5 32 32" width="32" height="32" shape-rendering="crispedges" xmlns="http://www.w3.org/2000/svg" xmlns:xlink="http://www.w3.org/1999/xlink">
    <style>
        :root, .palette0 {color: currentColor;
            --color0: #ff7878;
            --color1: #000;
            --color2: #ffe04c;
            --color3: #ffd300;
            --color4: #f00;
            --color5: #ffc300;
            --color6: #fff;
            --color7: #da00ff;
            --color8: #ffba1f;
            --color9: #ffb100;
            --color10: #da9700;
            --color11: #939393;
            --color12: #b3b3b3;
            --color13: #0af;
            --color14: #1db4ff;
            --color15: #00a3ff;
            --color16: #3d00ff;
            --color17: #ac0000;
            --color18: #ce0000;
            --color19: #ff5c5c;
            --color20: #ff2c2c;
            --color21: #9d4100;
            --color22: #ca5300;
            --color23: #ff9f5c;
            --color24: #ff8b39;
            --color25: #ff6900;
            --color26: #ff3bf1;
            --color27: #ff7cf5;
            --color28: #ffd8fc;
            --color29: #ffc5fb;
            --color30: #ffb0f9;
            --color31: #886e00;
            --color32: #c49f00;
            --color33: #ffe05c;
            --color34: #ffd833;
            --color35: #ffce00;
            --color36: #067d00;
            --color37: #09b500;
            --color38: #64ff5c;
            --color39: #40ff37;
            --color40: #0cff00;
            --color41: #160092;
            --color42: #1e00c2;
            --color43: #755cff;
            --color44: #4f30ff;
            --color45: #2700ff;
            --color46: #006096;
            --color47: #0082cc;
            --color48: #5cc4ff;
            --color49: #26b1ff;
            --color50: #5d009d;
            --color51: #7d00d3;
            --color52: #c269ff;
            --color53: #ad35ff;
            --color54: #9700ff;
            --color55: #502e16;
            --color56: #6e3e1d;
            --color57: #b56730;
            --color58: #8e5126;
            --color59: #7f4720;
            --color60: #404040;
            --color61: #4f4f4f;
            --color62: #7a7a7a;
            --color63: #6c6c6c;
            --color64: #676767;
            --color65: #7b7b7b;
            --color66: #a3a3a3;
            --color67: #e4e4e4;
            --color68: #d1d1d1;
            --color69: #cb0000;
            --color70: #b50000;
            --color71: #f50000;
            --color72: #d10000;
            --color73: #f60000;
            --color74: #c00;
            --color75: #d30000;
            --color76: #ff0c0c;
            --color77: #f70000;
            --color78: #cd0000;
            --color79: #ff1717;
            --color80: #fc0000;
            --color81: #d00000;
            --color82: #ff1c1c;
            --color83: #f80000;
            --color84: #ff1919;
            --color85: #c00000;
            --color86: #fa0000;
            --color87: #f90000;
            --color88: #d20000;
            --color89: #bd0000;
            --color90: #d60000;
            --color91: #ff1616;
            --color92: #ff1d1d;
            --color93: #d50000;
            --color94: #d70000;
            --color95: #fb0000;
            --color96: #fa1414;
            --color97: #ff0606;
            --color98: #ff3838;
            --color99: #ff2d2d;
            --color100: #e10202;
            --color101: #ff4242;
            --color102: #ff5151;
            --color103: #ff0808;
            --color104: #ff2828;
            --color105: #ff1f1f;
            --color106: #ff4a4a;
            --color107: #ff1b1b;
            --color108: #b60000;
            --color109: #ff2121;
            --color110: #ff2727;
            --color111: #ff5050;
            --color112: #ff4b4b;
            --color113: #ff2525;
            --color114: #d00;
            --color115: #fe0808;
            --color116: #ff0b0b;
            --color117: #fe0a0a;
            --color118: #b20000;
            --color119: #b40000;
            --color120: #de0000;
            --color121: #ff1010;
            --color122: #dc0000;
            --color123: #b30000;
            --color124: #b70000;
            --color125: #e00000;
            --color126: #ff0404;
            --color127: #ff0101;
            --color128: #df0000;
            --color129: #b80000;
            --color130: #e30000;
            --color131: #ff0202;
            --color132: #ff1414;
            --color133: #e10000;
            --color134: #b90000;
            --color135: #bc0000;
            --color136: #e70000;
            --color137: #ff1818;
            --color138: #e50000;
            --color139: #b00;
            --color140: #ba0000;
            --color141: #e60000;
            --color142: #ff2323;
            --color143: #e40000;
            --color144: #fd0000;
            --color145: #ff2424;
            --color146: #ff5656;
            --color147: #ff5959;
            --color148: #fd1717;
            --color149: #d40000;
            --color150: #ff2b2b;
            --color151: #ff4d4d;
            --color152: #ff2626;
            --color153: #ff2929;
            --color154: #fe1818;
            --color155: #ff5b5b;
            --color156: #f44;
            --color157: #fe0000;
            --color158: #ff1e1e;
            --color159: #ff1a1a;
            --color160: #0f0f0f;
            --color161: #434343;
            --color162: #232323;
            --color163: #1c1c1c;
            --color164: #f1f1f1;
            --color165: #eaeaea;
            --color166: #a5a5a5;
            --color167: #7f7f7f;
            --color168: #0e0e0e;
            --color169: #151515;
            --color170: #1b1b1b;
            --color171: #f5f5f5;
            --color172: #fbfbfb;
            --color173: #e7e7e7;
            --color174: #f7f7f7;
            --color175: #efefef;
            --color176: #f8f8f8;
            --color177: #fefefe;
            --color178: #f6f6f6;
            --color179: #f2f2f2;
            --color180: #f9f9f9;
            --color181: #eee;
            --color182: #e8e8e8;
            --color183: #fafafa;
            --color184: #f0f0f0;
            --color185: #f3f3f3;
            --color186: #e5e5e5;
            --color187: #ececec;
            --color188: #fcfcfc;
            --color189: #e6e6e6;
            --color190: #fdfdfd;
            --color191: #ededed;
            --color192: #e9e9e9;
            --color193: #cf38ff;
            --color194: #cf0aff;
            --color195: #ae77f7;
            --color196: #817ef9;
            --color197: #677ffb;
            --color198: #687bfe;
            --color199: #8c6eff;
            --color200: #a569ff;
            --color201: #cf4cff;
            --color202: #ce6cfa;
            --color203: #ce70f8;
            --color204: #b177f7;
            --color205: #737efa;
            --color206: #4185fc;
            --color207: #2589fe;
            --color208: #0e8eff;
            --color209: #547fff;
            --color210: #986aff;
            --color211: #9f60ff;
            --color212: #cf2fff;
            --color213: #1989fe;
            --color214: #6c79ff;
            --color215: #cf08ff;
            --color216: #cf23ff;
            --color217: #cf40ff;
            --color218: #cf43ff;
            --color219: #cf5cff;
            --color220: #cf68fb;
            --color221: #ce73f6;
            --color222: #9d7bf8;
            --color223: #6aabff;
            --color224: #8088ff;
            --color225: #9664ff;
            --color226: #8966ff;
            --color227: #7370ff;
            --color228: #7371ff;
            --color229: #687aff;
            --color230: #4184ff;
            --color231: #3487fe;
            --color232: #1b89fe;
            --color233: #07c687;
            --color234: #06c093;
            --color235: #02aac2;
            --color236: #06adc6;
            --color237: #0cc0a3;
            --color238: #13ca93;
            --color239: #0ec2a1;
            --color240: #09aeca;
            --color241: #2fa4ff;
            --color242: #52acff;
            --color243: #40a8ff;
            --color244: #25a0ff;
            --color245: #149cff;
            --color246: #0091ff;
            --color247: #1df33b;
            --color248: #18b8c4;
            --color249: #3aa5ff;
            --color250: #0d9cff;
            --color251: #0598ff;
            --color252: #0092ff;
            --color253: #008fff;
            --color254: #008eff;
            --color255: #20ff20;
            --color256: #38ee60;
            --color257: #4dd6a7;
            --color258: #70d1ca;
            --color259: #69b8f4;
            --color260: #66b1ff;
            --color261: #35a4ff;
            --color262: #1a9dff;
            --color263: #0a98ff;
            --color264: #0095ff;
            --color265: #04a9c8;
            --color266: #04bb9d;
            --color267: #08d26e;
            --color268: #09f51f;
            --color269: #a0ef29;
            --color270: #93f127;
            --color271: #84f324;
            --color272: #8ff332;
            --color273: #64f82f;
            --color274: #3aff3a;
            --color275: #62ff62;
            --color276: #7df989;
            --color277: #4ce87f;
            --color278: #30d09f;
            --color279: #20cb9b;
            --color280: #12ca91;
            --color281: #1aeb4b;
            --color282: #ebe952;
            --color283: #9ff349;
            --color284: #7bfc67;
            --color285: #7dff7d;
            --color286: #ffe645;
            --color287: #d6f178;
            --color288: #aff87b;
            --color289: #8bfd7e;
            --color290: #7fff7f;
            --color291: #59ff59;
            --color292: #47ff47;
            --color293: #42ff42;
            --color294: #35ff35;
            --color295: #24ff24;
            --color296: #15ff15;
            --color297: #0dff0d;
            --color298: #6af51d;
            --color299: #fdc545;
            --color300: #feba4a;
            --color301: #feab4d;
            --color302: #feab4f;
            --color303: #ffa55c;
            --color304: #ffa95e;
            --color305: #ffb865;
            --color306: #ffdb5b;
            --color307: #ffe968;
            --color308: #e6ef76;
            --color309: #d2ee55;
            --color310: #94f54c;
            --color311: #70fa47;
            --color312: #66f93c;
            --color313: #5af92e;
            --color314: #7af532;
            --color315: #91f337;
            --color316: #89f32a;
            --color317: #aaee2b;
            --color318: #e6e837;
            --color319: #ff9f6d;
            --color320: #ffa96c;
            --color321: #ffc476;
            --color322: #ffd97b;
            --color323: #ffe875;
            --color324: #ffe750;
            --color325: #ffe643;
            --color326: #ff874c;
            --color327: #ff8955;
            --color328: #ff9c66;
            --color329: #ffa782;
            --color330: #ffb589;
            --color331: #ffda7a;
            --color332: #ffea74;
            --color333: #ffe85a;
            --color334: #ffe756;
            --color335: #ffe754;
            --color336: #ffe74e;
            --color337: #ffe648;
            --color338: #fde53d;
            --color339: #fce53b;
            --color340: #fdd142;
            --color341: #feb44b;
            --color342: #ff9c54;
            --color343: #ff884d;
            --color344: #ff8c68;
            --color345: #ff635e;
            --color346: #ff4240;
            --color347: #ff6369;
            --color348: #ff817c;
            --color349: #ff896e;
            --color350: #ff9872;
            --color351: #ffb489;
            --color352: #ffc068;
            --color353: #ffc462;
            --color354: #ffcd58;
            --color355: #ffc952;
            --color356: #ffc155;
            --color357: #ffb259;
            --color358: #ffac52;
            --color359: #ff9b53;
            --color360: #ff5552;
            --color361: #ff7b8b;
            --color362: #ff9575;
            --color363: #ffaa8c;
            --color364: #ffa988;
            --color365: #ffa174;
            --color366: #ff9758;
            --color367: #ff9756;
            --color368: #ff884c;
            --color369: #ff895e;
            --color370: #ff726a;
            --color371: #ff4850;
            --color372: #ff5574;
            --color373: #ff7088;
            --color374: #ff8e79;
            --color375: #fe9a6a;
            --color376: #ffa06f;
            --color377: #ff9d68;
            --color378: #ff9b62;
            --color379: #ff9a5f;
            --color380: #ff985a;
            --color381: #ff8a4c;
            --color382: #ff8a73;
            --color383: #ff6973;
            --color384: #ff896f;
            --color385: #ff896c;
            --color386: #ff896a;
            --color387: #ff8969;
            --color388: #ff8777;
            --color389: #ff736a;
            --color390: #ff587b;
            --color391: #ff5677;
            --color392: #ff4c5b;
            --color393: #ff4852;
            --color394: #ff464c;
            --color395: #ff4549;
            --color396: #ff413e;
            --color397: #fff000;
            --color398: #ff8000;
            --color399: #fbd000;
            --color400: #473b00;
            --color401: #fed200;
            --color402: #5a4b00;
            --color403: #927900;
            --color404: #544500;
            --color405: #f0c700;
            --color406: #231d00;
            --color407: #a78a00;
            --color408: #957b00;
            --color409: #ffc800;
            --color410: #927800;
            --color411: #eec500;
            --color412: #ffcd00;
            --color413: #413600;
            --color414: #caa700;
            --color415: #ffcf00;
            --color416: #615000;
            --color417: #161200;
            --color418: #d2ae00;
            --color419: #ffd200;
            --color420: #ffc600;
            --color421: #796400;
            --color422: #0f0d00;
            --color423: #dfb900;
            --color424: #ffd610;
            --color425: #ffd613;
            --color426: #ffd81b;
            --color427: #947a00;
            --color428: #bb9b00;
            --color429: #ffdf45;
            --color430: #ffde41;
            --color431: #231e0a;
            --color432: #92802b;
            --color433: #ffd303;
            --color434: #ffd509;
            --color435: #ffdf44;
            --color436: #f0d348;
            --color437: #ffdd38;
            --color438: #ffd50e;
            --color439: #ffda32;
            --color440: #ffd301;
            --color441: #ffcb00;
            --color442: #927902;
            --color443: #ffd32a;
            --color444: #ffc500;
            --color445: #ffce1d;
            --color446: #ffd42e;
            --color447: #ffde47;
            --color448: #ffd124;
            --color449: #ffcc17;
            --color450: #fd4;
            --color451: #ffc80e;
            --color452: #ffc910;
            --color453: #d7b200;
            --color454: #ffc200;
            --color455: #ffc504;
            --color456: #fec200;
            --color457: #fec300;
            --color458: #909090;
        }
    </style>
    <metadata>Made with Pixels to Svg https://codepen.io/shshaw/pen/XbxvNj</metadata>
    <path stroke="var(--color458, #909090)" d="M3 0h1M6 0h1M2 1h1M5 1h1M1 2h1M4 2h1M0 3h1M3 3h1M2 4h1M1 5h1M0 6h1M31 25h1M30 26h1M29 27h1M28 28h1M31 28h1M27 29h1M30 29h1M26 30h1M29 30h1M25 31h1M28 31h1" />
    <path stroke="var(--color5, #ffc300)" d="M12 0h1M19 0h1M10 1h4M15 1h7M9 2h2M17 2h6M7 3h3M20 3h5M6 4h3M22 4h4M5 5h3M23 5h4M4 6h3M24 6h4M3 7h4M25 7h4M3 8h3M26 8h3M2 9h3M27 9h3M1 10h3M28 10h3M1 11h3M28 11h3M0 12h4M28 12h4M1 13h3M28 13h3M1 14h3M28 14h3M1 15h2M29 15h2M1 16h2M29 16h2M1 17h3M28 17h3M1 18h3M28 18h3M0 19h4M28 19h4M1 20h3M28 20h1M30 20h1M1 21h3M29 21h2M2 22h3M28 22h2M3 23h3M27 23h2M3 24h4M26 24h3M4 25h4M24 25h4M5 26h4M23 26h4M6 27h4M22 27h4M7 28h8M17 28h8M9 29h14M10 30h12M12 31h1M19 31h1" />
    <path stroke="var(--color457, #fec300)" d="M13 0h1M15 0h2M18 0h1M9 1h1M22 1h1M7 2h1M24 2h1M6 3h1M25 3h1M5 4h1M26 4h1M4 5h1M27 5h1M3 6h1M28 6h1M2 7h1M29 7h1M1 9h1M30 9h1M0 13h1M31 13h1M0 15h1M31 15h1M0 16h1M31 16h1M0 18h1M31 18h1M1 22h1M30 22h1M2 24h1M29 24h1M3 25h1M28 25h1M4 26h1M27 26h1M5 27h1M26 27h1M6 28h1M25 28h1M7 29h1M24 29h1M9 30h1M22 30h1M13 31h1M15 31h2M18 31h1" />
    <path stroke="var(--color456, #fec200)" d="M14 0h1M17 0h1M0 14h1M31 14h1M0 17h1M31 17h1M14 31h1M17 31h1" />
    <path stroke="var(--color455, #ffc504)" d="M14 1h1" />
    <path stroke="var(--color454, #ffc200)" d="M8 2h1M23 2h1M2 8h1M29 8h1M2 23h1M29 23h1M8 29h1M23 29h1" />
    <path stroke="var(--color453, #d7b200)" d="M11 2h1M10 3h1M9 4h1M8 5h1M7 6h1M29 20h1M28 21h1M27 22h1M26 23h1M25 24h1" />
    <path stroke="var(--color452, #ffc910)" d="M12 2h1" />
    <path stroke="var(--color451, #ffc80e)" d="M13 2h1M16 2h1M19 3h1M20 4h1" />
    <path stroke="var(--color450, #fd4)" d="M14 2h1M19 4h1M20 5h1" />
    <path stroke="var(--color449, #ffcc17)" d="M15 2h1" />
    <path stroke="var(--color448, #ffd124)" d="M11 3h1" />
    <path stroke="var(--color2, #ffe04c)" d="M12 3h1M14 3h3M12 4h1M14 4h5M13 5h7M13 6h2M17 6h4M18 7h3M19 8h2" />
    <path stroke="var(--color447, #ffde47)" d="M13 3h1" />
    <path stroke="var(--color446, #ffd42e)" d="M17 3h1" />
    <path stroke="var(--color445, #ffce1d)" d="M18 3h1" />
    <path stroke="var(--color444, #ffc500)" d="M10 4h1M21 4h1M4 10h1M27 10h1M4 21h1M27 21h1M10 27h1M21 27h1" />
    <path stroke="var(--color443, #ffd32a)" d="M11 4h1" />
    <path stroke="var(--color442, #927902)" d="M13 4h1M12 5h1M11 6h1M10 7h1M9 8h1M13 8h1M27 18h1M26 19h1M25 20h1M24 21h1M23 22h1" />
    <path stroke="var(--color441, #ffcb00)" d="M9 5h1M22 5h1M8 6h1M23 6h1M7 7h1M24 7h1M6 8h1M25 8h1M5 9h1M26 9h1M5 22h1M26 22h1M6 23h1M25 23h1M7 24h1M24 24h1M8 25h1M23 25h1M9 26h1M22 26h1" />
    <path stroke="var(--color440, #ffd301)" d="M10 5h1" />
    <path stroke="var(--color439, #ffda32)" d="M11 5h1" />
    <path stroke="var(--color438, #ffd50e)" d="M21 5h1" />
    <path stroke="var(--color3, #ffd300)" d="M9 6h2M8 7h2M11 7h1M22 7h2M7 8h2M10 8h3M23 8h2M6 9h6M22 9h4M5 10h7M19 10h8M6 11h6M18 11h8M5 12h8M17 12h10M5 13h9M15 13h6M24 13h3M5 14h15M25 14h2M4 15h8M15 15h4M26 15h2M4 16h7M16 16h3M26 16h2M5 17h5M17 17h1M25 17h2M5 18h4M17 18h2M24 18h3M5 19h4M17 19h3M23 19h3M6 20h2M16 20h9M5 21h4M15 21h9M25 21h2M6 22h4M14 22h9M24 22h2M7 23h4M12 23h13M8 24h16M9 25h14M10 26h1M12 26h8M21 26h1M15 27h2" />
    <path stroke="var(--color437, #ffdd38)" d="M12 6h1M13 7h1" />
    <path stroke="var(--color436, #f0d348)" d="M15 6h2" />
    <path stroke="var(--color435, #ffdf44)" d="M21 6h1" />
    <path stroke="var(--color434, #ffd509)" d="M22 6h1M22 8h1" />
    <path stroke="var(--color433, #ffd303)" d="M12 7h1" />
    <path stroke="var(--color432, #92802b)" d="M14 7h1M17 7h1M18 8h1" />
    <path stroke="var(--color431, #231e0a)" d="M15 7h2" />
    <path stroke="var(--color430, #ffde41)" d="M21 7h1" />
    <path stroke="var(--color1, #000)" d="M14 8h4M13 9h5M14 10h4M14 11h3M21 14h3M20 15h4M12 16h2M20 16h4M11 17h4M20 17h4M10 18h6M22 18h1M10 19h6M10 20h5M11 21h3" />
    <path stroke="var(--color429, #ffdf45)" d="M21 8h1" />
    <path stroke="var(--color428, #bb9b00)" d="M12 9h1M22 19h1" />
    <path stroke="var(--color427, #947a00)" d="M18 9h1M22 13h1" />
    <path stroke="var(--color426, #ffd81b)" d="M19 9h1" />
    <path stroke="var(--color425, #ffd613)" d="M20 9h1" />
    <path stroke="var(--color424, #ffd610)" d="M21 9h1" />
    <path stroke="var(--color423, #dfb900)" d="M12 10h1M21 19h1" />
    <path stroke="var(--color422, #0f0d00)" d="M13 10h1M21 18h1" />
    <path stroke="var(--color421, #796400)" d="M18 10h1M21 13h1" />
    <path stroke="var(--color420, #ffc600)" d="M4 11h1M27 11h1M4 20h1M27 20h1M11 27h1M20 27h1" />
    <path stroke="var(--color419, #ffd200)" d="M5 11h1M26 11h1M5 20h1M26 20h1M11 26h1M20 26h1" />
    <path stroke="var(--color418, #d2ae00)" d="M12 11h1M20 19h1" />
    <path stroke="var(--color417, #161200)" d="M13 11h1M14 12h1M14 16h1M15 17h1M19 17h1M20 18h1" />
    <path stroke="var(--color416, #615000)" d="M17 11h1M16 12h1M20 14h1M19 15h1" />
    <path stroke="var(--color415, #ffcf00)" d="M4 12h1M27 12h1M4 19h1M27 19h1M12 27h1M19 27h1" />
    <path stroke="var(--color414, #caa700)" d="M13 12h1M14 15h1M15 16h1M16 17h1M19 18h1" />
    <path stroke="var(--color413, #413600)" d="M15 12h1M19 16h1" />
    <path stroke="var(--color412, #ffcd00)" d="M4 13h1M27 13h1M4 14h1M27 14h1M4 17h1M27 17h1M4 18h1M13 27h2M17 27h2" />
    <path stroke="var(--color411, #eec500)" d="M14 13h1M18 17h1" />
    <path stroke="var(--color410, #927800)" d="M23 13h1M24 14h1M23 18h1" />
    <path stroke="var(--color409, #ffc800)" d="M3 15h1M28 15h1M3 16h1M28 16h1M15 28h2" />
    <path stroke="var(--color408, #957b00)" d="M12 15h1M16 19h1" />
    <path stroke="var(--color407, #a78a00)" d="M13 15h1M16 18h1" />
    <path stroke="var(--color406, #231d00)" d="M24 15h1M24 16h1" />
    <path stroke="var(--color405, #f0c700)" d="M25 15h1M25 16h1" />
    <path stroke="var(--color404, #544500)" d="M11 16h1M10 17h1M9 18h1M15 20h1M14 21h1M13 22h1" />
    <path stroke="var(--color403, #927900)" d="M24 17h1" />
    <path stroke="var(--color402, #5a4b00)" d="M9 19h1M12 22h1" />
    <path stroke="var(--color401, #fed200)" d="M8 20h1M11 23h1" />
    <path stroke="var(--color400, #473b00)" d="M9 20h1M10 21h1M11 22h1" />
    <path stroke="var(--color399, #fbd000)" d="M9 21h1M10 22h1" />
</svg>