<svg viewBox="0 -0.5 32 32" width="32" height="32" shape-rendering="crispedges" xmlns="http://www.w3.org/2000/svg" xmlns:xlink="http://www.w3.org/1999/xlink">
    <style>
        :root, .palette0 {color: currentColor;
            --color0: #ff7878;
            --color1: #000;
            --color2: #ffe04c;
            --color3: #ffd300;
            --color4: #f00;
            --color5: #ffc300;
            --color6: #fff;
            --color7: #da00ff;
            --color8: #ffba1f;
            --color9: #ffb100;
            --color10: #da9700;
            --color11: #939393;
            --color12: #b3b3b3;
            --color13: #0af;
            --color14: #1db4ff;
            --color15: #00a3ff;
            --color16: #3d00ff;
            --color17: #ac0000;
            --color18: #ce0000;
            --color19: #ff5c5c;
            --color20: #ff2c2c;
            --color21: #ff3bf1;
            --color22: #ff7cf5;
            --color23: #ffd8fc;
            --color24: #ffc5fb;
            --color25: #ffb0f9;
            --color26: #886e00;
            --color27: #c49f00;
            --color28: #ffe05c;
            --color29: #ffd833;
            --color30: #ffce00;
            --color31: #067d00;
            --color32: #09b500;
            --color33: #64ff5c;
            --color34: #40ff37;
            --color35: #0cff00;
            --color36: #160092;
            --color37: #1e00c2;
            --color38: #755cff;
            --color39: #4f30ff;
            --color40: #2700ff;
            --color41: #006096;
            --color42: #0082cc;
            --color43: #5cc4ff;
            --color44: #26b1ff;
            --color45: #5d009d;
            --color46: #7d00d3;
            --color47: #c269ff;
            --color48: #ad35ff;
            --color49: #9700ff;
            --color50: #502e16;
            --color51: #6e3e1d;
            --color52: #b56730;
            --color53: #8e5126;
            --color54: #7f4720;
            --color55: #404040;
            --color56: #4f4f4f;
            --color57: #7a7a7a;
            --color58: #6c6c6c;
            --color59: #676767;
            --color60: #7b7b7b;
            --color61: #a3a3a3;
            --color62: #e4e4e4;
            --color63: #d1d1d1;
            --color64: #cb0000;
            --color65: #b50000;
            --color66: #f50000;
            --color67: #d10000;
            --color68: #f60000;
            --color69: #c00;
            --color70: #d30000;
            --color71: #ff0c0c;
            --color72: #f70000;
            --color73: #cd0000;
            --color74: #ff1717;
            --color75: #fc0000;
            --color76: #d00000;
            --color77: #ff1c1c;
            --color78: #f80000;
            --color79: #ff1919;
            --color80: #c00000;
            --color81: #fa0000;
            --color82: #f90000;
            --color83: #d20000;
            --color84: #bd0000;
            --color85: #d60000;
            --color86: #ff1616;
            --color87: #ff1d1d;
            --color88: #d50000;
            --color89: #d70000;
            --color90: #fb0000;
            --color91: #fa1414;
            --color92: #ff0606;
            --color93: #ff3838;
            --color94: #ff2d2d;
            --color95: #e10202;
            --color96: #ff4242;
            --color97: #ff5151;
            --color98: #ff0808;
            --color99: #ff2828;
            --color100: #ff1f1f;
            --color101: #ff4a4a;
            --color102: #ff1b1b;
            --color103: #b60000;
            --color104: #ff2121;
            --color105: #ff2727;
            --color106: #ff5050;
            --color107: #ff4b4b;
            --color108: #ff2525;
            --color109: #d00;
            --color110: #fe0808;
            --color111: #ff0b0b;
            --color112: #fe0a0a;
            --color113: #b20000;
            --color114: #b40000;
            --color115: #de0000;
            --color116: #ff1010;
            --color117: #dc0000;
            --color118: #b30000;
            --color119: #b70000;
            --color120: #e00000;
            --color121: #ff0404;
            --color122: #ff0101;
            --color123: #df0000;
            --color124: #b80000;
            --color125: #e30000;
            --color126: #ff0202;
            --color127: #ff1414;
            --color128: #e10000;
            --color129: #b90000;
            --color130: #bc0000;
            --color131: #e70000;
            --color132: #ff1818;
            --color133: #e50000;
            --color134: #b00;
            --color135: #ba0000;
            --color136: #e60000;
            --color137: #ff2323;
            --color138: #e40000;
            --color139: #fd0000;
            --color140: #ff2424;
            --color141: #ff5656;
            --color142: #ff5959;
            --color143: #fd1717;
            --color144: #d40000;
            --color145: #ff2b2b;
            --color146: #ff4d4d;
            --color147: #ff2626;
            --color148: #ff2929;
            --color149: #fe1818;
            --color150: #ff5b5b;
            --color151: #f44;
            --color152: #fe0000;
            --color153: #ff1e1e;
            --color154: #ff1a1a;
            --color155: #0f0f0f;
            --color156: #434343;
            --color157: #232323;
            --color158: #1c1c1c;
            --color159: #f1f1f1;
            --color160: #eaeaea;
            --color161: #a5a5a5;
            --color162: #7f7f7f;
            --color163: #0e0e0e;
            --color164: #151515;
            --color165: #1b1b1b;
            --color166: #f5f5f5;
            --color167: #fbfbfb;
            --color168: #e7e7e7;
            --color169: #f7f7f7;
            --color170: #efefef;
            --color171: #f8f8f8;
            --color172: #fefefe;
            --color173: #f6f6f6;
            --color174: #f2f2f2;
            --color175: #f9f9f9;
            --color176: #eee;
            --color177: #e8e8e8;
            --color178: #fafafa;
            --color179: #f0f0f0;
            --color180: #f3f3f3;
            --color181: #e5e5e5;
            --color182: #ececec;
            --color183: #fcfcfc;
            --color184: #e6e6e6;
            --color185: #fdfdfd;
            --color186: #ededed;
            --color187: #e9e9e9;
            --color188: #cf38ff;
            --color189: #cf0aff;
            --color190: #ae77f7;
            --color191: #817ef9;
            --color192: #677ffb;
            --color193: #687bfe;
            --color194: #8c6eff;
            --color195: #a569ff;
            --color196: #cf4cff;
            --color197: #ce6cfa;
            --color198: #ce70f8;
            --color199: #b177f7;
            --color200: #737efa;
            --color201: #4185fc;
            --color202: #2589fe;
            --color203: #0e8eff;
            --color204: #547fff;
            --color205: #986aff;
            --color206: #9f60ff;
            --color207: #cf2fff;
            --color208: #1989fe;
            --color209: #6c79ff;
            --color210: #cf08ff;
            --color211: #cf23ff;
            --color212: #cf40ff;
            --color213: #cf43ff;
            --color214: #cf5cff;
            --color215: #cf68fb;
            --color216: #ce73f6;
            --color217: #9d7bf8;
            --color218: #6aabff;
            --color219: #8088ff;
            --color220: #9664ff;
            --color221: #8966ff;
            --color222: #7370ff;
            --color223: #7371ff;
            --color224: #687aff;
            --color225: #4184ff;
            --color226: #3487fe;
            --color227: #1b89fe;
            --color228: #07c687;
            --color229: #06c093;
            --color230: #02aac2;
            --color231: #06adc6;
            --color232: #0cc0a3;
            --color233: #13ca93;
            --color234: #0ec2a1;
            --color235: #09aeca;
            --color236: #2fa4ff;
            --color237: #52acff;
            --color238: #40a8ff;
            --color239: #25a0ff;
            --color240: #149cff;
            --color241: #0091ff;
            --color242: #1df33b;
            --color243: #18b8c4;
            --color244: #3aa5ff;
            --color245: #0d9cff;
            --color246: #0598ff;
            --color247: #0092ff;
            --color248: #008fff;
            --color249: #008eff;
            --color250: #20ff20;
            --color251: #38ee60;
            --color252: #4dd6a7;
            --color253: #70d1ca;
            --color254: #69b8f4;
            --color255: #66b1ff;
            --color256: #35a4ff;
            --color257: #1a9dff;
            --color258: #0a98ff;
            --color259: #0095ff;
            --color260: #04a9c8;
            --color261: #04bb9d;
            --color262: #08d26e;
            --color263: #09f51f;
            --color264: #a0ef29;
            --color265: #93f127;
            --color266: #84f324;
            --color267: #8ff332;
            --color268: #64f82f;
            --color269: #3aff3a;
            --color270: #62ff62;
            --color271: #7df989;
            --color272: #4ce87f;
            --color273: #30d09f;
            --color274: #20cb9b;
            --color275: #12ca91;
            --color276: #1aeb4b;
            --color277: #ebe952;
            --color278: #9ff349;
            --color279: #7bfc67;
            --color280: #7dff7d;
            --color281: #ffe645;
            --color282: #d6f178;
            --color283: #aff87b;
            --color284: #8bfd7e;
            --color285: #7fff7f;
            --color286: #59ff59;
            --color287: #47ff47;
            --color288: #42ff42;
            --color289: #35ff35;
            --color290: #24ff24;
            --color291: #15ff15;
            --color292: #0dff0d;
            --color293: #6af51d;
            --color294: #fdc545;
            --color295: #feba4a;
            --color296: #feab4d;
            --color297: #feab4f;
            --color298: #ffa55c;
            --color299: #ffa95e;
            --color300: #ffb865;
            --color301: #ffdb5b;
            --color302: #ffe968;
            --color303: #e6ef76;
            --color304: #d2ee55;
            --color305: #94f54c;
            --color306: #70fa47;
            --color307: #66f93c;
            --color308: #5af92e;
            --color309: #7af532;
            --color310: #91f337;
            --color311: #89f32a;
            --color312: #aaee2b;
            --color313: #e6e837;
            --color314: #ff9f6d;
            --color315: #ffa96c;
            --color316: #ffc476;
            --color317: #ffd97b;
            --color318: #ffe875;
            --color319: #ffe750;
            --color320: #ffe643;
            --color321: #ff874c;
            --color322: #ff8955;
            --color323: #ff9c66;
            --color324: #ffa782;
            --color325: #ffb589;
            --color326: #ffda7a;
            --color327: #ffea74;
            --color328: #ffe85a;
            --color329: #ffe756;
            --color330: #ffe754;
            --color331: #ffe74e;
            --color332: #ffe648;
            --color333: #fde53d;
            --color334: #fce53b;
            --color335: #fdd142;
            --color336: #feb44b;
            --color337: #ff9c54;
            --color338: #ff884d;
            --color339: #ff8c68;
            --color340: #ff635e;
            --color341: #ff4240;
            --color342: #ff6369;
            --color343: #ff817c;
            --color344: #ff896e;
            --color345: #ff9872;
            --color346: #ffb489;
            --color347: #ffc068;
            --color348: #ffc462;
            --color349: #ffcd58;
            --color350: #ffc952;
            --color351: #ffc155;
            --color352: #ffb259;
            --color353: #ffac52;
            --color354: #ff9b53;
            --color355: #ff5552;
            --color356: #ff7b8b;
            --color357: #ff9575;
            --color358: #ffaa8c;
            --color359: #ffa988;
            --color360: #ffa174;
            --color361: #ff9758;
            --color362: #ff9756;
            --color363: #ff884c;
            --color364: #ff895e;
            --color365: #ff726a;
            --color366: #ff4850;
            --color367: #ff5574;
            --color368: #ff7088;
            --color369: #ff8e79;
            --color370: #fe9a6a;
            --color371: #ffa06f;
            --color372: #ff9d68;
            --color373: #ff9b62;
            --color374: #ff9a5f;
            --color375: #ff985a;
            --color376: #ff8a4c;
            --color377: #ff8a73;
            --color378: #ff6973;
            --color379: #ff896f;
            --color380: #ff896c;
            --color381: #ff896a;
            --color382: #ff8969;
            --color383: #ff8777;
            --color384: #ff736a;
            --color385: #ff587b;
            --color386: #ff5677;
            --color387: #ff4c5b;
            --color388: #ff4852;
            --color389: #ff464c;
            --color390: #ff4549;
            --color391: #ff413e;
            --color392: #fff000;
            --color393: #ff8000;
            --color394: #fbd000;
            --color395: #473b00;
            --color396: #fed200;
            --color397: #5a4b00;
            --color398: #927900;
            --color399: #544500;
            --color400: #f0c700;
            --color401: #231d00;
            --color402: #a78a00;
            --color403: #957b00;
            --color404: #ffc800;
            --color405: #927800;
            --color406: #eec500;
            --color407: #ffcd00;
            --color408: #413600;
            --color409: #caa700;
            --color410: #ffcf00;
            --color411: #615000;
            --color412: #161200;
            --color413: #d2ae00;
            --color414: #ffd200;
            --color415: #ffc600;
            --color416: #796400;
            --color417: #0f0d00;
            --color418: #dfb900;
            --color419: #ffd610;
            --color420: #ffd613;
            --color421: #ffd81b;
            --color422: #947a00;
            --color423: #bb9b00;
            --color424: #ffdf45;
            --color425: #ffde41;
            --color426: #231e0a;
            --color427: #92802b;
            --color428: #ffd303;
            --color429: #ffd509;
            --color430: #ffdf44;
            --color431: #f0d348;
            --color432: #ffdd38;
            --color433: #ffd50e;
            --color434: #ffda32;
            --color435: #ffd301;
            --color436: #ffcb00;
            --color437: #927902;
            --color438: #ffd32a;
            --color439: #ffc500;
            --color440: #ffce1d;
            --color441: #ffd42e;
            --color442: #ffde47;
            --color443: #ffd124;
            --color444: #ffcc17;
            --color445: #fd4;
            --color446: #ffc80e;
            --color447: #ffc910;
            --color448: #d7b200;
            --color449: #ffc200;
            --color450: #ffc504;
            --color451: #fec200;
            --color452: #fec300;
            --color453: #909090;
            --color454: #ff994c;
            --color455: #ff7a00;
            --color456: #ff6200;
            --color457: #7c00c3;
            --color458: #be3dea;
            --color459: #ac00e0;
            --color460: #7b00c1;
            --color461: #7e00c1;
            --color462: #9400e5;
            --color463: #7c00c1;
            --color464: #9d4100;
            --color465: #ca5300;
            --color466: #ff9f5c;
            --color467: #ff7717;
            --color468: #ff6900;
            --color469: #75e3ff;
            --color470: #7ce9ff;
            --color471: #8cf5ff;
            --color472: #75d4ff;
            --color473: #a8c4ff;
            --color474: #bdbcff;
            --color475: #d7b5ff;
            --color476: #dbb6ff;
            --color477: #dfb8ff;
            --color478: #debbff;
            --color479: #add3ff;
            --color480: #7febff;
            --color481: #6bdaff;
            --color482: #69d9ff;
            --color483: #83d0ff;
            --color484: #b7bfff;
            --color485: #f0abff;
            --color486: #d9ccff;
            --color487: #8de7ff;
            --color488: #6cdbff;
            --color489: #73d4ff;
            --color490: #e7e2ff;
            --color491: #c1eaff;
            --color492: #92f6ff;
            --color493: #83eeff;
            --color494: #78e5ff;
            --color495: #8bd2ff;
            --color496: #c0bcff;
            --color497: #fea7fe;
            --color498: #f9b8f9;
            --color499: #f2cdf2;
            --color500: #f1d8f1;
            --color501: #f7c6f7;
            --color502: #fdb7fd;
            --color503: #ffb8ff;
            --color504: #ffc7ff;
            --color505: #f4dfff;
            --color506: #ded9ff;
            --color507: #a3daff;
            --color508: #b9d2ff;
            --color509: #c0c5ff;
            --color510: #f2b5ff;
            --color511: #f0caf0;
            --color512: #ead6ea;
            --color513: #e8dde8;
            --color514: #f5e5f5;
            --color515: #fcd7fc;
            --color516: #ffd6ff;
            --color517: #ffceff;
            --color518: #ffabff;
            --color519: #fff6ff;
            --color520: #ffedff;
            --color521: #ffe4ff;
            --color522: #ffc9ff;
            --color523: #fbf;
            --color524: #ffadff;
            --color525: #f8b9f8;
            --color526: #f7f1f7;
            --color527: #f4e6f4;
            --color528: #f4dcf4;
            --color529: #f4cef4;
            --color530: #efcfef;
            --color531: #ebd7eb;
            --color532: #e8d9e8;
            --color533: #e5e4e5;
            --color534: #ead8ea;
            --color535: #eedcee;
            --color536: #efddef;
            --color537: #efdeef;
            --color538: #eae8ea;
            --color539: #ecd2ec;
            --color540: #f9b4f9;
            --color541: #fdb6fd;
            --color542: #fabffa;
            --color543: #facdfa;
            --color544: #f5e2f5;
            --color545: #ffbdff;
            --color546: #ffcfff;
            --color547: #ffe3ff;
            --color548: #ffe8ff;
            --color549: #fff2ff;
            --color550: #fff9ff;
            --color551: #e6dee6;
            --color552: #ffb5ff;
            --color553: #ffd1ff;
            --color554: #ffc8ff;
            --color555: #f8daf8;
            --color556: #f4dff4;
            --color557: #f1e3f1;
            --color558: #ede4ed;
            --color559: #ebd8eb;
            --color560: #eecfee;
            --color561: #f6bbf6;
            --color562: #cdb8ff;
            --color563: #9bc8ff;
            --color564: #90cdff;
            --color565: #99d3ff;
            --color566: #b9c8ff;
            --color567: #baccff;
            --color568: #bdd4ff;
            --color569: #c5e4ff;
            --color570: #d9e4ff;
            --color571: #ffdbff;
            --color572: #d5b6ff;
            --color573: #81d0ff;
            --color574: #96f5ff;
            --color575: #bdebff;
            --color576: #eadeff;
            --color577: #ffc2ff;
            --color578: #ffa9ff;
            --color579: #ffa7ff;
            --color580: #dbb4ff;
            --color581: #9fc8ff;
            --color582: #72e1ff;
            --color583: #89f3ff;
            --color584: #a1dbff;
            --color585: #f0c4ff;
            --color586: #ffbfff;
            --color587: #ffb7ff;
            --color588: #ffb0ff;
            --color589: #ffafff;
            --color590: #faf;
            --color591: #e8b0ff;
            --color592: #b9beff;
            --color593: #7ed2ff;
            --color594: #9dddff;
            --color595: #add0ff;
            --color596: #94d3ff;
            --color597: #7adbff;
            --color598: #8df6ff;
            --color599: #8af4ff;
            --color600: #79e6ff;
            --color601: #73e2ff;
            --color602: #70dfff;
            --color603: #6fdeff;
            --color604: #68d8ff;
        }
    </style>
    <metadata>Made with Pixels to Svg https://codepen.io/shshaw/pen/XbxvNj</metadata>
    <path stroke="var(--color604, #68d8ff)" d="M4 5h3M2 6h5M29 6h2M1 7h6M27 7h4M1 8h2M26 8h5M26 9h3M2 22h1M1 23h2M28 23h3M1 24h3M23 24h7M23 25h6M23 26h3" />
    <path stroke="var(--color603, #6fdeff)" d="M7 5h1M7 6h1" />
    <path stroke="var(--color602, #70dfff)" d="M8 5h1M8 6h1M21 8h5M21 9h5M4 21h3M4 22h3M17 24h5M17 25h5M18 26h4" />
    <path stroke="var(--color601, #73e2ff)" d="M9 5h1M9 6h1" />
    <path stroke="var(--color600, #79e6ff)" d="M10 5h3M10 6h3M11 7h2M18 8h2M18 9h2M8 21h1M8 22h1M15 23h1M15 24h1M14 25h1" />
    <path stroke="var(--color599, #8af4ff)" d="M13 6h1M13 7h1M13 8h1" />
    <path stroke="var(--color598, #8df6ff)" d="M14 6h1M14 7h3M14 8h3M16 9h1M10 21h1M10 22h4M12 23h2" />
    <path stroke="var(--color597, #7adbff)" d="M7 7h1" />
    <path stroke="var(--color596, #94d3ff)" d="M8 7h1M23 10h3" />
    <path stroke="var(--color595, #add0ff)" d="M9 7h1" />
    <path stroke="var(--color594, #9dddff)" d="M10 7h1" />
    <path stroke="var(--color593, #7ed2ff)" d="M3 8h1" />
    <path stroke="var(--color592, #b9beff)" d="M4 8h1" />
    <path stroke="var(--color591, #e8b0ff)" d="M5 8h1" />
    <path stroke="var(--color590, #faf)" d="M6 8h1M25 12h1" />
    <path stroke="var(--color589, #ffafff)" d="M7 8h1M24 12h1M24 13h1" />
    <path stroke="var(--color588, #ffb0ff)" d="M8 8h1M6 9h3M6 10h3M21 11h5M20 12h4M22 13h2M5 18h2M4 19h3M17 21h6M17 22h6M18 23h4" />
    <path stroke="var(--color587, #ffb7ff)" d="M9 8h1M9 9h1M9 10h1M19 12h1M7 18h1" />
    <path stroke="var(--color586, #ffbfff)" d="M10 8h1M10 9h2M10 10h1M18 11h2M17 12h1M9 18h1M8 19h1M15 20h1M15 21h1" />
    <path stroke="var(--color585, #f0c4ff)" d="M11 8h1" />
    <path stroke="var(--color584, #a1dbff)" d="M12 8h1" />
    <path stroke="var(--color583, #89f3ff)" d="M17 8h1M17 9h1" />
    <path stroke="var(--color582, #72e1ff)" d="M20 8h1M20 9h1" />
    <path stroke="var(--color581, #9fc8ff)" d="M1 9h1" />
    <path stroke="var(--color580, #dbb4ff)" d="M2 9h1" />
    <path stroke="var(--color579, #ffa7ff)" d="M3 9h2M1 10h4M29 10h2M1 11h2M27 11h4M26 12h5M25 13h3M2 18h1M1 19h2M1 20h2M26 20h5M1 21h1M24 21h7M24 22h4" />
    <path stroke="var(--color578, #ffa9ff)" d="M5 9h1M5 10h1M26 11h1M3 18h1" />
    <path stroke="var(--color577, #ffc2ff)" d="M12 9h1M11 10h1M17 11h1M9 19h1" />
    <path stroke="var(--color576, #eadeff)" d="M13 9h1" />
    <path stroke="var(--color575, #bdebff)" d="M14 9h1" />
    <path stroke="var(--color574, #96f5ff)" d="M15 9h1" />
    <path stroke="var(--color573, #81d0ff)" d="M29 9h1" />
    <path stroke="var(--color572, #d5b6ff)" d="M30 9h1" />
    <path stroke="var(--color571, #ffdbff)" d="M12 10h4M12 11h4M11 19h3M11 20h3" />
    <path stroke="var(--color570, #d9e4ff)" d="M16 10h1" />
    <path stroke="var(--color569, #c5e4ff)" d="M17 10h1" />
    <path stroke="var(--color568, #bdd4ff)" d="M18 10h2" />
    <path stroke="var(--color567, #baccff)" d="M20 10h1" />
    <path stroke="var(--color566, #b9c8ff)" d="M21 10h1M6 20h1" />
    <path stroke="var(--color565, #99d3ff)" d="M22 10h1" />
    <path stroke="var(--color564, #90cdff)" d="M26 10h1" />
    <path stroke="var(--color563, #9bc8ff)" d="M27 10h1" />
    <path stroke="var(--color562, #cdb8ff)" d="M28 10h1" />
    <path stroke="var(--color561, #f6bbf6)" d="M3 11h1M29 13h1" />
    <path stroke="var(--color560, #eecfee)" d="M4 11h1" />
    <path stroke="var(--color559, #ebd8eb)" d="M5 11h1" />
    <path stroke="var(--color558, #ede4ed)" d="M6 11h1" />
    <path stroke="var(--color160, #eaeaea)" d="M7 11h1M6 12h2M5 13h3M5 14h3M19 14h2M5 15h3M19 15h5M5 16h3M18 16h6M18 17h6M18 18h5M18 19h5" />
    <path stroke="var(--color557, #f1e3f1)" d="M8 11h1" />
    <path stroke="var(--color556, #f4dff4)" d="M9 11h1" />
    <path stroke="var(--color555, #f8daf8)" d="M10 11h1" />
    <path stroke="var(--color554, #ffc8ff)" d="M11 11h1" />
    <path stroke="var(--color553, #ffd1ff)" d="M16 11h1" />
    <path stroke="var(--color552, #ffb5ff)" d="M20 11h1" />
    <path stroke="var(--color551, #e6dee6)" d="M1 12h1" />
    <path stroke="var(--color62, #e4e4e4)" d="M2 12h2M1 13h3M1 14h3M27 14h4M1 15h3M25 15h6M1 16h3M25 16h6M1 17h1M25 17h6M25 18h6M24 19h2" />
    <path stroke="var(--color181, #e5e5e5)" d="M4 12h1" />
    <path stroke="var(--color177, #e8e8e8)" d="M5 12h1M23 19h1" />
    <path stroke="var(--color176, #eee)" d="M8 12h1M8 13h1M8 14h1M8 15h1M8 16h1" />
    <path stroke="var(--color159, #f1f1f1)" d="M9 12h2M9 13h2M9 14h1M17 14h1M9 15h1M9 16h1M16 17h1M16 18h1" />
    <path stroke="var(--color180, #f3f3f3)" d="M11 12h1M11 13h1" />
    <path stroke="var(--color550, #fff9ff)" d="M12 12h1" />
    <path stroke="var(--color549, #fff2ff)" d="M13 12h1" />
    <path stroke="var(--color548, #ffe8ff)" d="M14 12h1" />
    <path stroke="var(--color547, #ffe3ff)" d="M15 12h1" />
    <path stroke="var(--color546, #ffcfff)" d="M16 12h1" />
    <path stroke="var(--color545, #ffbdff)" d="M18 12h1M7 19h1M16 20h1" />
    <path stroke="var(--color184, #e6e6e6)" d="M4 13h1M4 14h1M4 15h1M4 16h1M24 18h1" />
    <path stroke="var(--color6, #fff)" d="M12 13h4M12 14h4M11 15h4M11 16h4M11 17h4M14 18h1" />
    <path stroke="var(--color175, #f9f9f9)" d="M16 13h1M16 14h1M16 15h1" />
    <path stroke="var(--color544, #f5e2f5)" d="M17 13h1" />
    <path stroke="var(--color543, #facdfa)" d="M18 13h1" />
    <path stroke="var(--color542, #fabffa)" d="M19 13h2M19 20h1" />
    <path stroke="var(--color541, #fdb6fd)" d="M21 13h1" />
    <path stroke="var(--color540, #f9b4f9)" d="M28 13h1" />
    <path stroke="var(--color539, #ecd2ec)" d="M30 13h1" />
    <path stroke="var(--color174, #f2f2f2)" d="M10 14h1M16 16h1" />
    <path stroke="var(--color173, #f6f6f6)" d="M11 14h1M10 15h1M10 16h1" />
    <path stroke="var(--color179, #f0f0f0)" d="M18 14h1M17 15h2" />
    <path stroke="var(--color538, #eae8ea)" d="M21 14h1" />
    <path stroke="var(--color537, #efdeef)" d="M22 14h1" />
    <path stroke="var(--color536, #efddef)" d="M23 14h1M22 20h1" />
    <path stroke="var(--color535, #eedcee)" d="M24 14h1" />
    <path stroke="var(--color534, #ead8ea)" d="M25 14h1" />
    <path stroke="var(--color533, #e5e4e5)" d="M26 14h1" />
    <path stroke="var(--color172, #fefefe)" d="M15 15h1" />
    <path stroke="var(--color187, #e9e9e9)" d="M24 15h1M24 16h1M24 17h1M23 18h1" />
    <path stroke="var(--color171, #f8f8f8)" d="M15 16h1" />
    <path stroke="var(--color170, #efefef)" d="M17 16h1M17 17h1M17 18h1M17 19h1" />
    <path stroke="var(--color532, #e8d9e8)" d="M2 17h1" />
    <path stroke="var(--color531, #ebd7eb)" d="M3 17h1M29 19h1" />
    <path stroke="var(--color530, #efcfef)" d="M4 17h1" />
    <path stroke="var(--color529, #f4cef4)" d="M5 17h3" />
    <path stroke="var(--color528, #f4dcf4)" d="M8 17h1" />
    <path stroke="var(--color527, #f4e6f4)" d="M9 17h1" />
    <path stroke="var(--color526, #f7f1f7)" d="M10 17h1" />
    <path stroke="var(--color169, #f7f7f7)" d="M15 17h1M15 18h1" />
    <path stroke="var(--color525, #f8b9f8)" d="M1 18h1" />
    <path stroke="var(--color524, #ffadff)" d="M4 18h1M23 21h1M23 22h1" />
    <path stroke="var(--color523, #fbf)" d="M8 18h1" />
    <path stroke="var(--color522, #ffc9ff)" d="M10 18h1" />
    <path stroke="var(--color521, #ffe4ff)" d="M11 18h1" />
    <path stroke="var(--color520, #ffedff)" d="M12 18h1" />
    <path stroke="var(--color519, #fff6ff)" d="M13 18h1" />
    <path stroke="var(--color518, #ffabff)" d="M3 19h1M3 20h1" />
    <path stroke="var(--color517, #ffceff)" d="M10 19h1" />
    <path stroke="var(--color516, #ffd6ff)" d="M14 19h1" />
    <path stroke="var(--color515, #fcd7fc)" d="M15 19h1" />
    <path stroke="var(--color514, #f5e5f5)" d="M16 19h1" />
    <path stroke="var(--color513, #e8dde8)" d="M26 19h1" />
    <path stroke="var(--color512, #ead6ea)" d="M27 19h2" />
    <path stroke="var(--color511, #f0caf0)" d="M30 19h1" />
    <path stroke="var(--color510, #f2b5ff)" d="M4 20h1" />
    <path stroke="var(--color509, #c0c5ff)" d="M5 20h1" />
    <path stroke="var(--color508, #b9d2ff)" d="M7 20h1" />
    <path stroke="var(--color507, #a3daff)" d="M8 20h1" />
    <path stroke="var(--color506, #ded9ff)" d="M9 20h1" />
    <path stroke="var(--color505, #f4dfff)" d="M10 20h1" />
    <path stroke="var(--color504, #ffc7ff)" d="M14 20h1M14 21h1" />
    <path stroke="var(--color503, #ffb8ff)" d="M17 20h1M16 21h1M16 22h1" />
    <path stroke="var(--color502, #fdb7fd)" d="M18 20h1" />
    <path stroke="var(--color501, #f7c6f7)" d="M20 20h1" />
    <path stroke="var(--color500, #f1d8f1)" d="M21 20h1" />
    <path stroke="var(--color499, #f2cdf2)" d="M23 20h1" />
    <path stroke="var(--color498, #f9b8f9)" d="M24 20h1" />
    <path stroke="var(--color497, #fea7fe)" d="M25 20h1" />
    <path stroke="var(--color496, #c0bcff)" d="M2 21h1" />
    <path stroke="var(--color495, #8bd2ff)" d="M3 21h1" />
    <path stroke="var(--color494, #78e5ff)" d="M7 21h1M7 22h1M15 25h1" />
    <path stroke="var(--color493, #83eeff)" d="M9 21h1M9 22h1" />
    <path stroke="var(--color492, #92f6ff)" d="M11 21h1" />
    <path stroke="var(--color491, #c1eaff)" d="M12 21h1" />
    <path stroke="var(--color490, #e7e2ff)" d="M13 21h1" />
    <path stroke="var(--color489, #73d4ff)" d="M1 22h1" />
    <path stroke="var(--color488, #6cdbff)" d="M3 22h1M22 24h1M22 25h1M22 26h1" />
    <path stroke="var(--color487, #8de7ff)" d="M14 22h1" />
    <path stroke="var(--color486, #d9ccff)" d="M15 22h1" />
    <path stroke="var(--color485, #f0abff)" d="M28 22h1" />
    <path stroke="var(--color484, #b7bfff)" d="M29 22h1" />
    <path stroke="var(--color483, #83d0ff)" d="M30 22h1" />
    <path stroke="var(--color482, #69d9ff)" d="M3 23h1" />
    <path stroke="var(--color481, #6bdaff)" d="M4 23h1" />
    <path stroke="var(--color480, #7febff)" d="M14 23h1" />
    <path stroke="var(--color479, #add3ff)" d="M16 23h1" />
    <path stroke="var(--color478, #debbff)" d="M17 23h1" />
    <path stroke="var(--color477, #dfb8ff)" d="M22 23h1" />
    <path stroke="var(--color476, #dbb6ff)" d="M23 23h1" />
    <path stroke="var(--color475, #d7b5ff)" d="M24 23h1" />
    <path stroke="var(--color474, #bdbcff)" d="M25 23h1" />
    <path stroke="var(--color473, #a8c4ff)" d="M26 23h1" />
    <path stroke="var(--color472, #75d4ff)" d="M27 23h1" />
    <path stroke="var(--color471, #8cf5ff)" d="M12 24h2" />
    <path stroke="var(--color470, #7ce9ff)" d="M14 24h1" />
    <path stroke="var(--color469, #75e3ff)" d="M16 24h1M16 25h1" />
</svg>